<svg width="888" height="847" viewBox="0 0 888 847" fill="none" xmlns="http://www.w3.org/2000/svg">
<path d="M692.016 330.525H639.047V253.19C639.047 203.4 598.791 163.144 549 163.144C499.209 163.144 458.953 203.4 458.953 253.19V330.525H405.984V253.19C405.984 174.797 470.606 110.175 549 110.175C627.394 110.175 692.016 174.797 692.016 253.19V330.525Z" fill="#596ACA"/>
<path d="M707.906 264.844H390.094C372.084 264.844 358.312 278.616 358.312 296.625V497.906C358.312 515.916 372.084 529.688 390.094 529.688H707.906C725.916 529.688 739.688 515.916 739.688 497.906V296.625C739.688 278.616 725.916 264.844 707.906 264.844ZM570.188 417.394V444.938C570.188 456.591 560.653 466.125 549 466.125C537.347 466.125 527.812 456.591 527.812 444.938V417.394C515.1 409.978 506.625 396.206 506.625 381.375C506.625 358.069 525.694 339 549 339C572.306 339 591.375 358.069 591.375 381.375C591.375 397.266 582.9 411.038 570.188 417.394Z" fill="#596ACA"/>
<path d="M167.237 847H231.198C232.696 847 234.006 845.918 234.006 844.62V843.754C234.006 842.456 232.758 841.374 231.198 841.374H167.237C165.739 841.374 164.428 842.456 164.428 843.754V844.62C164.428 845.918 165.677 847 167.237 847ZM314.192 841.374C312.641 841.374 311.384 842.633 311.384 844.187C311.384 845.741 312.641 847 314.192 847H415.907C417.458 847 418.715 845.741 418.715 844.187C418.715 842.633 417.458 841.374 415.907 841.374H314.192Z" fill="#F0F0F0"/>
<path d="M166.896 841.392C167.009 841.38 167.122 841.374 167.237 841.374H230.984L225.94 809.484L181.261 803.42L166.896 841.392ZM313.821 841.398C313.943 841.382 314.067 841.374 314.193 841.374H415.466C415.533 841.031 415.567 840.6 415.557 840.041C415.487 839.605 415.478 839.105 415.345 838.607C414.544 835.62 413.573 833.636 410.734 831.873C407.895 830.109 404.996 828.534 401.976 827.149C390.838 821.904 387.032 821.971 379.709 817.16C376.678 815.149 373.891 812.822 371.289 810.304C369.554 808.626 366.011 805.899 360.661 802.123L312.551 803.202L313.821 841.398Z" fill="#474961"/>
<path d="M246.107 458.304C241.358 467.566 228.503 496.31 217.027 554.819C216.082 559.673 215.175 564.399 214.304 568.988L214.217 568.882C198.489 628.248 187.573 669.808 181.466 693.562C175.195 717.96 183.892 717.579 179.136 738.104C176.394 749.938 167.207 759.454 167.286 771.776C167.299 773.723 167.252 777.615 167.146 783.452C166.956 793.878 174.562 802.806 184.869 804.257L226.502 810.119C237.764 811.704 248.177 803.844 249.76 792.561C249.775 792.457 249.789 792.353 249.802 792.249C250.925 783.249 251.493 777.899 251.508 776.198C251.538 772.674 251.582 769.465 251.65 766.542C254.048 756.707 256.548 746.472 258.559 738.222C261.274 734.021 264.467 728.214 266.984 718.82C268.639 712.639 272.403 688.583 278.275 646.652C278.388 646.089 278.602 644.355 278.919 641.451L287.138 611.145C287.481 614.684 287.83 618.265 288.184 621.878C287.459 672.103 287.478 700.318 288.241 706.523C290.642 726.051 297.825 731.427 298.035 737.564C298.241 743.575 297.329 752.334 295.595 765.5C295.373 767.187 295.193 772.564 295.055 781.633C295.053 781.738 295.052 781.843 295.052 781.948C295.052 791.079 300.975 798.825 309.181 801.541C314.344 806.249 322.656 802.667 344.484 802.816C344.484 802.816 347.842 802.845 352.277 802.577L357.688 802.577C360.89 802.577 363.938 801.841 366.659 800.519C369.24 799.795 371.374 798.843 372.564 797.592C373.557 796.517 374.183 795.298 374.183 795.298C374.479 794.633 374.692 793.978 374.845 793.36C376.571 790.758 377.728 787.732 378.129 784.446C378.834 778.65 379.328 774.79 379.611 772.864C381.402 760.673 373.626 749.969 372.555 737.868C370.697 716.879 379.257 718.469 376.435 693.434C373.714 669.286 368.565 641.412 360.988 609.811C356.605 560.041 350.838 504.12 344.484 485.328C344.378 484.993 340.414 471.673 334.684 462.27C334.509 462.459 334.328 462.64 334.14 462.813C333.423 463.489 332.709 463.976 331.997 464.339C330.572 465.189 329.391 465.481 329.391 465.481C329.391 465.481 329.332 465.48 329.272 465.542C329.272 465.542 291.014 475.127 253.055 464.209L252.939 464.145C252.939 464.145 251.769 463.812 250.374 462.912C249.734 462.525 248.98 461.95 248.285 461.312C247.415 460.46 246.698 459.434 246.107 458.304Z" fill="#CDCDCD"/>
<path opacity="0.176986" d="M326.5 466.153L306.524 539.937L287.158 611.343C287.494 614.818 287.837 618.333 288.184 621.878C287.459 672.103 287.478 700.318 288.241 706.523C290.642 726.051 297.825 731.427 298.035 737.564C298.241 743.575 297.329 752.334 295.595 765.5C295.373 767.187 295.193 772.564 295.055 781.633C295.053 781.738 295.053 781.843 295.053 781.948C295.053 791.079 300.975 798.825 309.181 801.541C314.344 806.249 322.656 802.667 344.484 802.816C344.484 802.816 347.842 802.845 352.277 802.577L357.688 802.577C360.89 802.577 363.938 801.841 366.659 800.519C369.24 799.795 371.374 798.843 372.564 797.592C373.557 796.517 374.183 795.298 374.183 795.298C374.479 794.633 374.692 793.978 374.845 793.36C376.571 790.758 377.728 787.732 378.129 784.446C378.834 778.65 379.328 774.79 379.611 772.864C381.402 760.673 373.626 749.969 372.555 737.868C370.697 716.879 379.257 718.469 376.435 693.434C373.714 669.286 368.565 641.412 360.988 609.811C356.605 560.041 350.838 504.12 344.484 485.328C344.378 484.993 340.414 471.673 334.684 462.27C334.509 462.459 334.328 462.64 334.14 462.813C333.423 463.489 332.709 463.976 331.997 464.339C330.572 465.189 329.391 465.481 329.391 465.481C329.391 465.481 329.332 465.48 329.272 465.542C329.272 465.542 328.296 465.787 326.5 466.153Z" fill="#444444"/>
<path d="M245.445 379.828C245.374 380.546 245.303 381.289 245.235 382.054L245.231 382.242L245.06 385.302C244.056 419.36 243.554 434.669 243.273 440.666C243.273 440.666 243.321 441.292 243.246 442.229C243.08 444.977 242.824 456.289 248.026 461.382C248.72 462.019 249.474 462.595 250.114 462.981C251.509 463.881 252.679 464.214 252.679 464.214L252.796 464.279C290.755 475.196 329.013 465.612 329.013 465.612C329.013 465.612 330.553 465.269 331.978 464.419C332.69 464.056 333.445 463.531 334.162 462.856C339.479 457.947 339.336 446.66 339.266 443.908C339.282 443.033 339.294 442.345 339.294 442.345C339.227 436.625 339.25 422.732 339.406 392.593C354.31 391.208 360.344 386.902 357.507 379.673C351.064 363.254 346.797 347.499 321.252 345.679C314.984 342.548 308.141 341.5 303.377 341.181C300.617 341.007 298.559 341.034 297.736 341.082C297.383 341.076 296.912 341.13 296.029 341.177C295.147 341.224 294.147 341.269 293.029 341.312C291.914 341.23 290.916 341.15 290.035 341.073C289.155 340.995 288.745 340.925 288.333 340.918C287.453 340.84 285.456 340.742 282.692 340.819C282.033 340.84 281.334 340.873 280.601 340.922C280.232 340.837 279.857 340.754 279.477 340.671C253.222 334.995 244.921 349.366 234.262 363.818C229.995 369.602 233.723 374.939 245.445 379.828Z" fill="#F0F0F0"/>
<path opacity="0.176986" d="M321.645 345.677C325.292 347.519 328.738 350.071 331.456 353.602C332.662 355.186 334.208 357.589 335.382 361.048C335.549 361.551 335.718 361.992 335.886 362.495C336.278 363.565 337.121 365.83 337.842 368.281C338.617 371.046 339.231 376.308 339.632 383.631L339.629 383.818L339.693 386.883C339.683 388.813 339.673 390.683 339.664 392.494C354.2 391.06 360.065 386.769 357.261 379.623C350.872 363.341 346.622 347.713 321.645 345.677Z" fill="#444444"/>
<path d="M249.755 532.755C250.275 533.159 250.583 533.34 250.583 533.34C258.774 531.962 247.062 501.568 243.571 492.965L272.974 387.595C254.721 383.729 242.68 379.515 236.852 374.953C221 438.853 212.434 479.838 211.155 497.907C211.057 498.48 210.997 499.094 210.976 499.749C210.634 510.263 214.122 526.355 221.439 548.024C221.497 548.151 240.527 557.511 253.915 549.598L249.755 532.755ZM329.828 286.069C329.801 286.034 329.775 285.999 329.75 285.963C324.273 279.814 314.19 279.996 309.65 280.977C309.098 281.098 307.138 281.555 304.303 282.043C302.764 282.33 301.523 282.461 300.785 282.601C291.577 283.948 287.798 283.215 283.405 286.192C282.582 286.718 280.713 288.046 279.204 290.405C274.947 297.076 276.961 304.91 277.519 307.24C279.38 314.21 283.932 318.13 285.362 319.803C286.427 321.067 287.904 322.479 289.341 323.754L287.95 343.93C287.935 344.367 288.107 344.811 288.475 345.012C290.061 346.068 292.329 347.273 295.176 347.998C300.311 349.366 304.769 348.647 307.29 347.984C307.793 347.877 308.185 347.39 308.202 346.89L308.955 333.66C309.502 333.803 310.085 333.951 310.706 334.106C316.19 335.54 315.86 335.386 316.246 335.471C320.26 336.054 323.598 335.577 324.205 335.387C326.42 334.966 328.583 332.852 330.36 329.459C332.771 324.931 334.624 318.073 335.161 310.034C335.292 308.888 335.237 307.763 335.181 306.637L334.262 295.482C334.063 292.989 333.244 290.561 331.768 288.454C331.167 287.511 330.586 286.755 329.893 286.137C329.872 286.114 329.85 286.092 329.828 286.069ZM357.453 385.799C355.469 389.388 349.453 391.65 339.405 392.584C339.296 413.669 339.251 426.803 339.257 434.75C354.243 453.238 364.27 450.354 364.27 450.354C371.253 450.657 376.593 447.475 378.608 446.254C396.188 435.633 429.56 376.524 435.316 366.169C442.914 365.127 450.008 363.126 456.597 360.169C467.105 355.452 471.339 350.977 469.3 346.744L415.448 350.227L415.301 350.124L368.597 399.364C363.703 394.155 360.378 389.9 357.453 385.799Z" fill="#FFCDB8"/>
<path opacity="0.2" d="M357.251 385.798C355.267 389.388 349.251 391.649 339.203 392.583C339.094 413.669 339.049 426.802 339.055 434.749C354.041 453.238 364.068 450.353 364.068 450.353C371.051 450.656 376.391 447.475 378.406 446.253C395.986 435.632 429.358 376.523 435.114 366.169C442.712 365.126 449.806 363.126 456.395 360.168C466.903 355.452 471.137 350.977 469.098 346.743L415.246 350.226L415.099 350.124L368.395 399.364C363.501 394.154 360.176 389.9 357.251 385.798Z" fill="#8C2A00"/>
<path d="M309.967 333.879L300.774 330.94L308.295 342.452L309.967 333.879Z" fill="#2E241F"/>
<path d="M287.552 308.624C287.486 307.109 287.797 305.554 288.61 304.123C290.302 301.116 293.863 299.17 296.946 299.851C298.681 300.234 299.935 301.422 300.072 301.533C301.969 303.471 302.576 305.67 302.576 305.67L302.881 307.129C325.246 298.582 329.582 287.795 330.747 287.115C330.391 286.712 330.042 286.372 329.823 286.081C324.285 279.938 314.015 280.139 309.413 281.127C308.799 281.254 306.839 281.712 303.942 282.206C302.342 282.5 301.1 282.631 300.362 282.771C290.968 284.138 287.127 283.411 282.672 286.394C281.848 286.921 279.918 288.255 278.408 290.614C273.701 297.773 275.845 305.656 276.662 307.456C277.233 308.715 278.131 309.501 278.131 309.501C281.436 309.004 284.518 308.785 287.552 308.624ZM336.766 303.525C337.383 303.368 337.527 302.546 337.068 302.132C336.481 301.662 335.458 301.215 334.212 301.281C331.657 301.415 329.003 303.244 331.909 303.843C333.614 304.192 335.595 303.837 336.766 303.525ZM323.952 304.636C324.569 304.479 324.713 303.657 324.192 303.246C323.605 302.776 322.582 302.329 321.273 302.398C318.718 302.532 316.067 304.424 318.97 304.96C320.803 305.365 322.781 304.948 323.952 304.636Z" fill="#2E241F"/>
<path d="M332.136 308.15C332.254 309.208 332.532 310.947 333.188 311.538C334.297 312.419 335.504 309.226 334.593 307.333C334.239 306.538 333.796 306.436 333.301 306.524C332.56 306.688 332.097 307.401 332.136 308.15ZM320.975 308.611C320.968 309.676 321.06 311.424 321.722 312.14C322.712 313.152 324.3 310.064 323.573 308.099C323.281 307.301 322.835 307.136 322.337 307.163C321.589 307.202 320.998 307.859 320.975 308.611Z" fill="#2E241F"/>
<path d="M326.751 321.14C326.309 321.038 325.233 320.782 325.01 320.105C325.003 319.98 324.931 319.796 324.987 319.668C325.214 319.218 325.974 319.428 327.099 319.432C329.1 319.452 330.71 319.179 330.71 319.179C330.71 319.179 330.34 320.451 330.048 320.842C329.473 321.811 327.447 321.291 326.751 321.14Z" fill="#2E241F"/>
<path d="M330.335 308.37L330.325 308.283L330.333 308.326L330.335 308.37ZM331.609 314.914C331.763 315.612 331.254 316.332 330.55 316.488C330.396 316.51 330.396 316.51 330.295 316.524C329.248 316.66 328.592 316.724 327.464 316.784C327.12 316.802 326.826 316.537 326.808 316.192C326.79 315.847 327.054 315.553 327.398 315.535C328.491 315.478 329.117 315.416 330.135 315.284L330.335 315.258C330.337 315.255 330.39 315.18 330.387 315.168L329.1 308.522L329.089 308.435L328.896 304.752C328.878 304.407 329.143 304.113 329.487 304.095C329.831 304.077 330.125 304.342 330.143 304.687L330.333 308.326L331.609 314.914Z" fill="#2E241F"/>
<path d="M287.595 307.659C287.502 309.51 288.037 311.459 289.03 312.967C290.244 314.871 291.771 315.819 293.684 316.47C294.01 316.581 294.185 316.936 294.074 317.263C293.963 317.59 293.608 317.765 293.282 317.654C292.441 317.367 291.767 317.076 290.97 316.582C289.796 315.854 288.776 314.892 287.983 313.648C286.85 311.926 286.242 309.714 286.348 307.596C286.366 307.251 286.659 306.986 287.003 307.003C287.347 307.02 287.612 307.314 287.595 307.659Z" fill="#2E241F"/>
<path d="M239.914 529.63C239.815 529.122 239.324 528.79 238.816 528.889C238.309 528.989 237.978 529.481 238.077 529.989C238.698 533.182 239.259 535.647 240.57 541.124C241.875 546.576 242.433 549.023 243.047 552.181C243.146 552.689 243.638 553.021 244.145 552.922C244.653 552.823 244.984 552.331 244.885 551.822C244.264 548.63 243.702 546.164 242.391 540.687C241.086 535.236 240.528 532.788 239.914 529.63ZM227.257 526.88C227.127 526.378 226.616 526.078 226.116 526.208C225.616 526.339 225.316 526.85 225.446 527.352C226.337 530.785 226.968 533.462 228.326 539.435C229.688 545.426 230.322 548.116 231.22 551.573C231.35 552.075 231.861 552.375 232.361 552.245C232.862 552.115 233.162 551.603 233.032 551.101C232.14 547.668 231.509 544.991 230.151 539.018C228.789 533.027 228.155 530.337 227.257 526.88Z" fill="#2E241F"/>
<path d="M441.318 339.003C434.521 339.003 429 333.25 429 326.154C429 319.058 434.521 313.306 441.318 313.306C448.114 313.306 453.615 319.058 453.615 326.154C453.615 333.25 448.114 339.003 441.318 339.003ZM441.197 333.944C445.389 333.944 448.784 330.406 448.784 326.034C448.784 321.663 445.389 318.125 441.197 318.125C437.005 318.125 433.609 321.663 433.609 326.034C433.609 330.406 437.005 333.944 441.197 333.944Z" fill="#FFFF00"/>
<path d="M443.021 314.771H439.111C438.476 314.771 437.961 314.257 437.961 313.623V263.147C437.961 262.513 438.476 262 439.111 262H443.021C443.657 262 444.171 262.513 444.171 263.147V313.623C444.171 314.257 443.657 314.771 443.021 314.771Z" fill="#FFFF00"/>
<path d="M443.25 273.148H450.151V270.166H448.08V267.871H451.301V263.741H443.48L443.25 273.148L443.25 273.148Z" fill="#FFFF00"/>
</svg>
