<svg width="1323" height="1013" viewBox="0 0 1323 1013" fill="none" xmlns="http://www.w3.org/2000/svg">
<g clip-path="url(#clip0_109_1567)">
<path d="M684.904 142.051C707.251 101.466 746.251 78.6575 801.904 73.6259C864.472 67.9691 906.995 92.0305 929.474 145.81C941.072 143.252 953.786 141.532 967.617 140.652C1049.64 135.432 1094.27 169.241 1101.5 242.08C1101.57 242.743 1101.6 243.409 1101.6 244.076C1101.6 255.247 1092.53 264.303 1081.35 264.303H893.91H662.762H533.251C532.788 264.303 532.326 264.287 531.864 264.256C520.707 263.491 512.283 253.836 513.048 242.691C517.367 179.827 560.079 145.814 641.183 140.652C657.179 139.634 671.752 140.1 684.904 142.051ZM1046.9 378.155C1062.83 354.528 1093.06 341.048 1137.59 337.714C1186.88 334.023 1220.79 347.573 1239.31 378.365C1241.41 378.269 1243.56 378.221 1245.76 378.221C1285.18 378.221 1310.65 393.641 1322.16 424.479C1322.72 425.987 1323.01 427.582 1323.01 429.191C1323.01 436.638 1316.97 442.675 1309.51 442.675H1172.3H1122.04L969.599 444.999C962.436 445.108 956.434 439.609 955.927 432.47C953.59 399.579 983.477 381.496 1045.59 378.221C1046.03 378.198 1046.46 378.176 1046.9 378.155Z" fill="#F2F6FB"/>
</g>
<g clip-path="url(#clip1_109_1567)">
<path d="M157.556 220.488C151.949 210.127 141.045 201.633 120.739 199.806C96.012 197.582 86.4616 207.742 82.1762 221.665C79.2271 221.072 75.9524 220.645 72.3145 220.416C32.0561 217.884 27.9615 243.62 32.0561 256.885C35.4571 267.903 59.8446 268.545 77.437 268.447C80.8096 281.409 95.5377 280.197 109.668 280.197C124.657 280.197 150.467 275.794 159.252 263.382C176.335 263.697 194.79 261.295 199.993 256.621C209.55 248.036 208.459 222.911 168.134 220.395C164.328 220.158 160.806 220.203 157.556 220.488Z" fill="#E1E5F0"/>
<path d="M238.235 244.297C230.271 230.172 215.117 218.697 187.413 216.187C153.38 213.103 139.965 226.966 133.877 246.131C129.396 245.129 124.353 244.414 118.672 244.052C62.7001 240.482 57.0073 276.759 62.7001 295.457C67.4956 311.208 102.304 311.916 126.83 311.747C131.112 330.847 151.974 329.094 171.976 329.094C193.049 329.094 229.46 322.807 241.413 305.044C265.221 305.53 291.047 302.122 298.303 295.457C311.569 283.274 310.054 247.622 254.082 244.052C248.34 243.686 243.065 243.794 238.235 244.297ZM276.63 179.473C273.214 173.3 266.639 168.262 254.501 167.169C239.633 165.831 233.851 171.911 231.247 180.268C229.363 179.863 227.252 179.573 224.885 179.423C200.674 177.891 198.212 193.453 200.674 201.474C202.741 208.208 217.704 208.532 228.307 208.462C230.255 216.482 239.219 215.739 247.816 215.739C256.839 215.739 272.357 213.095 277.709 205.649C287.984 205.842 299.082 204.376 302.211 201.523C307.959 196.282 307.303 180.947 283.052 179.411C280.739 179.265 278.601 179.294 276.63 179.473Z" fill="#F2F6FB"/>
</g>
<g clip-path="url(#clip2_109_1567)">
<path fill-rule="evenodd" clip-rule="evenodd" d="M509.329 981.448C509.329 981.448 589.193 1027.88 657.068 1008.09C725.867 990.95 1029.25 939.632 1029.25 939.632C1029.25 939.632 1109.73 921.399 1019.76 888.851L749.977 789.144L284.919 657.496L145.48 684.331C145.48 684.331 96.5587 688.194 146.375 717.474C166.145 732.116 509.329 981.448 509.329 981.448Z" fill="#F4F2F0"/>
<path fill-rule="evenodd" clip-rule="evenodd" d="M509.006 979.481C509.006 979.481 588.106 1025.46 655.33 1005.87C723.471 988.891 1023.95 938.067 1023.95 938.067C1023.95 938.067 1103.55 920.025 1014.55 887.771L747.347 789.017L284.591 657.846L145.744 684.548C145.744 684.548 97.9448 688.29 147.285 717.291C166.868 731.795 509.006 979.481 509.006 979.481V979.481Z" fill="#F1EDEB"/>
<path fill-rule="evenodd" clip-rule="evenodd" d="M508.689 977.513C508.689 977.513 587.024 1023.05 653.598 1003.64C721.08 986.83 1018.65 936.5 1018.65 936.5C1018.65 936.5 1097.38 918.653 1009.34 886.691L744.727 788.89L284.27 658.2L146.02 684.767C146.02 684.767 99.3402 688.391 148.206 717.111C167.597 731.474 508.689 977.513 508.689 977.513V977.513Z" fill="#EDE9E6"/>
<path fill-rule="evenodd" clip-rule="evenodd" d="M508.364 975.545C508.364 975.545 585.933 1020.64 651.857 1001.42C718.681 984.77 1013.34 934.931 1013.34 934.931C1013.34 934.931 1091.21 917.278 1004.12 885.608L742.096 788.762L283.945 658.553L146.287 684.984C146.287 684.984 100.729 688.49 149.114 716.931C168.318 731.154 508.364 975.545 508.364 975.545V975.545Z" fill="#EAE5E2"/>
<path fill-rule="evenodd" clip-rule="evenodd" d="M508.045 973.578C508.045 973.578 584.85 1018.23 650.123 999.198C716.287 982.71 1008.05 933.363 1008.05 933.363C1008.05 933.363 1085.04 915.903 998.917 884.527L739.473 788.637L283.622 658.904L146.556 685.203C146.556 685.203 102.12 688.591 150.029 716.751C169.042 730.832 508.045 973.578 508.045 973.578V973.578Z" fill="#E6E0DD"/>
<path fill-rule="evenodd" clip-rule="evenodd" d="M507.726 971.607C507.726 971.607 583.765 1015.81 648.387 996.974C713.891 980.65 1002.74 931.794 1002.74 931.794C1002.74 931.794 1078.86 914.528 993.708 883.446L736.847 788.511L283.298 659.257L146.829 685.422C146.829 685.422 103.515 688.692 150.945 716.573C169.767 730.514 507.726 971.607 507.726 971.607V971.607Z" fill="#E3DCD8"/>
<path fill-rule="evenodd" clip-rule="evenodd" d="M507.405 969.64C507.405 969.64 582.681 1013.4 646.653 994.75C711.498 978.593 997.444 930.225 997.444 930.225C997.444 930.225 1072.69 913.155 988.499 882.361L734.223 788.384L282.976 659.608L147.098 685.641C147.098 685.641 104.904 688.79 151.858 716.39C170.491 730.19 507.405 969.64 507.405 969.64V969.64Z" fill="#DFD7D3"/>
<path fill-rule="evenodd" clip-rule="evenodd" d="M507.087 967.672C507.087 967.672 581.596 1010.98 644.919 992.526C709.108 976.534 992.147 928.658 992.147 928.658C992.147 928.658 1066.53 911.782 983.291 881.282L731.598 788.26L282.653 659.961L147.369 685.86C147.369 685.86 106.297 688.887 152.775 716.21C171.215 729.872 507.087 967.672 507.087 967.672V967.672Z" fill="#DBD3CF"/>
<path fill-rule="evenodd" clip-rule="evenodd" d="M506.765 965.703C506.765 965.703 580.509 1008.57 643.183 990.304C706.71 974.475 986.848 927.092 986.848 927.092C986.848 927.092 1060.36 910.409 978.083 880.201L728.973 788.132L282.327 660.312L147.638 686.079C147.638 686.079 107.688 688.988 153.685 716.029C171.941 729.548 506.765 965.703 506.765 965.703V965.703Z" fill="#D8CFCA"/>
<path fill-rule="evenodd" clip-rule="evenodd" d="M506.442 963.735C506.442 963.735 579.424 1006.16 641.446 988.082C704.316 972.416 981.543 925.523 981.543 925.523C981.543 925.523 1054.18 909.034 972.87 879.12L726.347 788.006L282.003 660.667L147.906 686.296C147.906 686.296 109.076 689.089 154.599 715.849C172.664 729.23 506.442 963.735 506.442 963.735Z" fill="#D4CBC5"/>
<path fill-rule="evenodd" clip-rule="evenodd" d="M506.123 961.766C506.123 961.766 578.337 1003.75 639.707 985.857C701.918 970.357 976.244 923.958 976.244 923.958C976.244 923.958 1048.01 907.659 967.661 878.039L723.718 787.879L281.676 661.019L148.173 686.514C148.173 686.514 110.467 689.189 155.512 715.668C173.39 728.908 506.123 961.766 506.123 961.766V961.766Z" fill="#D1C6C1"/>
<path fill-rule="evenodd" clip-rule="evenodd" d="M505.799 959.799C505.799 959.799 577.249 1001.33 637.972 983.633C699.522 968.296 970.94 922.391 970.94 922.391C970.94 922.391 1041.84 906.285 962.45 876.96L721.092 787.753L281.352 661.373L148.443 686.734C148.443 686.734 111.857 689.29 156.425 715.49C174.113 728.588 505.799 959.799 505.799 959.799Z" fill="#CDC2BC"/>
<path fill-rule="evenodd" clip-rule="evenodd" d="M505.48 957.831C505.48 957.831 576.164 998.921 636.239 981.409C697.131 966.238 965.644 920.82 965.644 920.82C965.644 920.82 1035.67 904.912 957.244 875.874L718.469 787.624L281.031 661.728L148.714 686.953C148.714 686.953 113.247 689.392 157.34 715.31C174.838 728.266 505.48 957.831 505.48 957.831V957.831Z" fill="#CABEB7"/>
<path fill-rule="evenodd" clip-rule="evenodd" d="M505.16 955.862C505.16 955.862 575.081 996.508 634.503 979.187C694.736 964.176 960.343 919.252 960.343 919.252C960.343 919.252 1029.49 903.537 952.035 874.793L715.843 787.501L280.706 662.079L148.984 687.169C148.984 687.169 114.641 689.488 158.255 715.125C175.563 727.946 505.16 955.862 505.16 955.862Z" fill="#C6BAB3"/>
<path fill-rule="evenodd" clip-rule="evenodd" d="M504.839 953.896C504.839 953.896 573.995 994.095 632.767 976.963C692.341 962.118 955.042 917.685 955.042 917.685C955.042 917.685 1023.32 902.164 946.826 873.714L713.219 787.375L280.382 662.432L149.254 687.391C149.254 687.391 116.031 689.589 159.169 714.947C176.288 727.624 504.839 953.896 504.839 953.896V953.896Z" fill="#C2B5AE"/>
<path fill-rule="evenodd" clip-rule="evenodd" d="M504.519 951.925C504.519 951.925 572.911 991.685 631.033 974.74C689.949 960.06 949.742 916.116 949.742 916.116C949.742 916.116 1017.15 900.79 941.614 872.63L710.594 787.249L280.061 662.784L149.525 687.61C149.525 687.61 117.422 689.69 160.084 714.765C177.012 727.305 504.519 951.925 504.519 951.925V951.925Z" fill="#BFB1AA"/>
<path fill-rule="evenodd" clip-rule="evenodd" d="M504.199 949.958C504.199 949.958 571.825 989.269 629.297 972.517C687.552 958 944.444 914.549 944.444 914.549C944.444 914.549 1010.98 899.416 936.405 871.55L707.968 787.124L279.735 663.136L149.793 687.829C149.793 687.829 118.814 689.791 160.998 714.584C177.735 726.982 504.199 949.958 504.199 949.958V949.958Z" fill="#BBADA5"/>
<path fill-rule="evenodd" clip-rule="evenodd" d="M503.879 947.988C503.879 947.988 570.738 986.856 627.561 970.296C685.158 955.942 939.142 912.982 939.142 912.982C939.142 912.982 1004.81 898.042 931.196 870.468L705.342 786.995L279.41 663.488L150.063 688.046C150.063 688.046 120.204 689.89 161.909 714.402C178.459 726.665 503.879 947.988 503.879 947.988V947.988Z" fill="#B8A9A1"/>
<path fill-rule="evenodd" clip-rule="evenodd" d="M503.556 946.021C503.556 946.021 569.652 984.443 625.822 968.071C682.762 953.885 933.84 911.414 933.84 911.414C933.84 911.414 998.636 896.67 925.986 869.388L702.715 786.868L279.085 663.84L150.33 688.264C150.33 688.264 121.593 689.99 162.821 714.224C179.183 726.34 503.556 946.021 503.556 946.021V946.021Z" fill="#B4A59C"/>
<path fill-rule="evenodd" clip-rule="evenodd" d="M503.237 944.055C503.237 944.055 568.567 982.03 624.09 965.845C680.367 951.824 928.542 909.847 928.542 909.847C928.542 909.847 992.465 895.294 920.779 868.304L700.092 786.74L278.762 664.192L150.601 688.482C150.601 688.482 122.986 690.087 163.736 714.042C179.909 726.023 503.237 944.055 503.237 944.055V944.055Z" fill="#B1A198"/>
<path fill-rule="evenodd" clip-rule="evenodd" d="M502.912 942.084C502.912 942.084 567.481 979.619 622.353 963.623C677.974 949.765 923.241 908.28 923.241 908.28C923.241 908.28 986.295 893.92 915.569 867.226L697.466 786.615L278.438 664.544L150.868 688.7C150.868 688.7 124.375 690.188 164.649 713.863C180.633 725.698 502.912 942.084 502.912 942.084V942.084Z" fill="#AD9D94"/>
<path fill-rule="evenodd" clip-rule="evenodd" d="M502.597 940.118C502.597 940.118 566.396 977.204 620.62 961.401C675.583 947.707 917.944 906.711 917.944 906.711C917.944 906.711 980.125 892.546 910.363 866.144L694.842 786.489L278.114 664.896L151.141 688.917C151.141 688.917 125.77 690.289 165.567 713.681C181.36 725.381 502.597 940.118 502.597 940.118V940.118Z" fill="#A9998F"/>
<path fill-rule="evenodd" clip-rule="evenodd" d="M200.802 671.287L172.441 674.784L170.574 587.236L215.233 597.12L200.802 671.287Z" fill="url(#paint0_linear_109_1567)"/>
<path fill-rule="evenodd" clip-rule="evenodd" d="M374.492 613.342H507.965V759.489H374.492V613.342Z" fill="url(#paint1_linear_109_1567)"/>
<path d="M478.853 636.062L479.248 636.056C497.315 636.056 511.96 678.863 511.96 731.671C511.96 784.479 497.315 827.289 479.248 827.289L418.461 834.609V637.101L478.853 636.062Z" fill="#1D2D28"/>
<path fill-rule="evenodd" clip-rule="evenodd" d="M452.246 735.856C452.246 709.664 448.686 684.546 442.35 666.026C436.014 647.506 427.42 637.102 418.459 637.102C409.498 637.102 400.904 647.506 394.568 666.026C388.232 684.546 384.672 709.664 384.672 735.856C384.672 762.047 388.232 787.165 394.568 805.685C400.904 824.205 409.498 834.61 418.459 834.61C427.42 834.61 436.014 824.205 442.35 805.685C448.686 787.165 452.246 762.047 452.246 735.856" fill="#1D2D28"/>
<path fill-rule="evenodd" clip-rule="evenodd" d="M418.457 834.609C403.574 834.609 390.939 806.481 386.434 767.42C392.086 797.701 400.905 814.214 412.959 814.214C429.567 814.214 446.167 779.732 446.167 731.19C446.167 695.224 435.949 656.186 423.9 638.376C439.972 645.986 452.242 686.729 452.242 735.855C452.244 790.393 437.116 834.609 418.457 834.609Z" fill="#1D2D28"/>
<path fill-rule="evenodd" clip-rule="evenodd" d="M418.457 834.154C404.153 834.154 391.914 807.772 387.309 770.51C392.933 799.127 401.431 815.14 413.362 815.161C430.191 815.2 446.353 779.642 446.353 731.19C446.353 695.862 436.464 657.546 424.695 639.517C440.229 647.823 452.057 687.762 452.057 735.856C452.057 790.482 436.897 834.154 418.457 834.154V834.154Z" fill="#28312B"/>
<path fill-rule="evenodd" clip-rule="evenodd" d="M418.459 833.699C404.734 833.699 392.892 809.06 388.188 773.6C393.784 800.554 401.96 816.071 413.767 816.114C430.817 816.189 446.544 779.556 446.544 731.19C446.544 696.497 436.976 658.906 425.495 640.66C440.49 649.658 451.874 688.788 451.874 735.855C451.872 790.569 436.676 833.699 418.459 833.699V833.699Z" fill="#31352F"/>
<path fill-rule="evenodd" clip-rule="evenodd" d="M418.458 833.246C405.312 833.246 393.868 810.352 389.062 776.692C394.636 801.98 402.483 816.997 414.168 817.061C431.439 817.179 446.728 779.468 446.728 731.19C446.728 697.133 437.486 660.268 426.288 641.801C440.745 651.492 451.688 689.817 451.688 735.855C451.685 790.658 436.454 833.246 418.458 833.246V833.246Z" fill="#3A3832"/>
<path fill-rule="evenodd" clip-rule="evenodd" d="M418.458 832.791C405.891 832.791 394.844 811.643 389.938 779.786C395.483 803.41 403.008 817.931 414.569 818.014C432.061 818.165 446.914 779.382 446.914 731.192C446.914 697.773 437.997 661.629 427.08 642.949C440.998 653.331 451.499 690.849 451.499 735.857C451.501 790.745 436.231 832.791 418.458 832.791Z" fill="#423C35"/>
<path fill-rule="evenodd" clip-rule="evenodd" d="M418.458 832.336C406.47 832.336 395.819 812.935 390.812 782.875C396.33 804.835 403.534 818.858 414.972 818.961C432.687 819.154 447.101 779.294 447.101 731.19C447.101 698.406 438.509 662.983 427.877 644.087C441.257 655.165 451.314 691.875 451.314 735.855C451.314 790.833 436.01 832.336 418.458 832.336Z" fill="#494039"/>
<path fill-rule="evenodd" clip-rule="evenodd" d="M418.458 831.883C407.049 831.883 396.795 814.226 391.688 785.965C397.179 806.259 404.057 819.786 415.373 819.91C433.309 820.14 447.287 779.207 447.287 731.191C447.287 699.04 439.019 664.343 428.667 645.229C441.512 657.001 451.125 692.904 451.125 735.856C451.127 790.922 435.787 831.883 418.458 831.883Z" fill="#50453D"/>
<path fill-rule="evenodd" clip-rule="evenodd" d="M418.459 831.43C407.63 831.43 397.773 815.516 392.566 789.056C398.03 807.686 404.584 820.715 415.778 820.859C433.935 821.127 447.473 779.118 447.473 731.188C447.473 699.675 439.532 665.699 429.464 646.369C441.769 658.831 450.94 693.93 450.94 735.853C450.942 791.01 435.567 831.43 418.459 831.43Z" fill="#574941"/>
<path fill-rule="evenodd" clip-rule="evenodd" d="M418.459 830.974C408.209 830.974 398.749 816.805 393.441 792.147C398.88 809.111 405.107 821.644 416.181 821.81C434.559 822.119 447.664 779.03 447.664 731.19C447.664 700.314 440.044 667.06 430.262 647.511C442.028 660.669 450.757 694.96 450.757 735.853C450.755 791.095 435.344 830.974 418.459 830.974V830.974Z" fill="#5D4E45"/>
<path fill-rule="evenodd" clip-rule="evenodd" d="M418.459 830.522C408.788 830.522 399.727 818.098 394.316 795.239C399.727 810.539 405.632 822.572 416.582 822.759C435.181 823.104 447.846 778.942 447.846 731.19C447.846 700.95 440.554 668.419 431.053 648.655C442.283 662.507 450.568 695.993 450.568 735.855C450.568 791.181 435.123 830.522 418.459 830.522V830.522Z" fill="#64534A"/>
<path fill-rule="evenodd" clip-rule="evenodd" d="M418.458 830.069C409.367 830.069 400.705 819.389 395.191 798.333C400.576 811.969 406.156 823.504 416.982 823.708C435.802 824.095 448.034 778.854 448.034 731.191C448.034 701.586 441.065 669.778 431.849 649.798C442.538 664.34 450.381 697.019 450.381 735.856C450.381 791.27 434.899 830.069 418.458 830.069V830.069Z" fill="#6A594F"/>
<path fill-rule="evenodd" clip-rule="evenodd" d="M418.458 829.611C409.944 829.611 401.68 820.68 396.066 801.421C401.425 813.392 406.681 824.433 417.386 824.659C436.429 825.081 448.219 778.766 448.219 731.19C448.219 702.223 441.575 671.137 432.642 650.939C442.796 666.175 450.194 698.045 450.194 735.855C450.194 791.357 434.68 829.611 418.458 829.611V829.611Z" fill="#715F54"/>
<path fill-rule="evenodd" clip-rule="evenodd" d="M418.46 829.159C410.527 829.159 402.658 821.971 396.945 804.513C402.274 814.82 407.21 825.361 417.79 825.608C437.054 826.069 448.409 778.682 448.409 731.192C448.409 702.863 442.089 672.498 433.437 652.084C443.052 668.013 450.009 699.08 450.009 735.855C450.009 791.445 434.459 829.159 418.46 829.159V829.159Z" fill="#78655A"/>
<path fill-rule="evenodd" clip-rule="evenodd" d="M418.459 828.705C411.106 828.705 403.634 823.261 397.82 807.602C403.125 816.243 407.733 826.29 418.191 826.559C437.676 827.057 448.593 778.592 448.593 731.19C448.593 703.494 442.599 673.857 434.233 653.224C443.309 669.849 449.825 700.106 449.825 735.855C449.822 791.533 434.237 828.705 418.459 828.705Z" fill="#7E6B60"/>
<path fill-rule="evenodd" clip-rule="evenodd" d="M401.594 684.344H435.327V709.513H401.594V684.344Z" fill="url(#paint2_linear_109_1567)"/>
<path fill-rule="evenodd" clip-rule="evenodd" d="M401.594 707.364H435.327V785.084H401.594V707.364Z" fill="url(#paint3_linear_109_1567)"/>
<path fill-rule="evenodd" clip-rule="evenodd" d="M391.52 687.229L458.114 707.607L450.955 731.051L384.359 710.671L391.52 687.229Z" fill="url(#paint4_linear_109_1567)"/>
<path fill-rule="evenodd" clip-rule="evenodd" d="M384.989 708.618L451.585 728.996L444.973 750.64L378.375 730.262L384.989 708.618Z" fill="url(#paint5_linear_109_1567)"/>
<path fill-rule="evenodd" clip-rule="evenodd" d="M379.002 728.21L445.598 748.588L435.26 782.424L368.664 762.048L379.002 728.21Z" fill="url(#paint6_linear_109_1567)"/>
<path d="M413.114 702.885C419.344 702.885 424.359 717.644 424.359 735.854C424.359 754.063 419.309 768.82 413.08 768.82C409.519 768.82 406.339 763.996 404.273 756.457" stroke="#A9998F" stroke-width="0.5" stroke-miterlimit="3.8637"/>
<path d="M411.797 798.113C399.653 798.113 389.809 771.321 389.809 738.271C389.809 705.22 399.653 678.428 411.797 678.428C416.71 678.428 421.247 682.812 424.906 690.222C422.92 687.816 420.743 686.491 418.458 686.491C409.143 686.491 401.592 708.563 401.592 735.789C401.592 763.015 409.146 785.086 418.458 785.086C422.967 785.086 427.062 779.917 430.087 771.495C426.144 787.542 419.423 798.113 411.797 798.113V798.113Z" fill="#1D2D28"/>
<path d="M411.915 797.501C400.146 797.456 390.293 771.271 390.293 738.221C390.293 705.171 400.146 678.599 411.915 678.647C416.827 678.677 421.248 682.811 424.908 690.224C422.922 687.818 420.635 686.15 418.118 686.124C408.804 686.079 401.178 708.741 401.178 735.967C401.178 763.193 408.731 785.468 418.046 785.468C422.555 785.468 427.006 780.191 430.033 771.772C425.865 787.431 419.541 797.546 411.915 797.501Z" fill="#2A322C"/>
<path d="M412.034 796.894C400.637 796.795 390.777 771.224 390.777 738.172C390.777 705.119 400.637 678.767 412.034 678.866C416.945 678.926 421.248 682.811 424.908 690.222C422.921 687.816 420.523 685.802 417.777 685.757C408.465 685.66 400.759 708.915 400.759 736.141C400.759 763.367 408.314 785.844 417.629 785.844C422.138 785.844 426.948 780.46 429.972 772.04C425.583 787.319 419.658 796.984 412.034 796.894V796.894Z" fill="#353630"/>
<path d="M412.152 796.28C401.125 796.136 391.262 771.173 391.262 738.122C391.262 705.072 401.128 678.939 412.152 679.085C417.062 679.173 421.247 682.809 424.907 690.222C422.921 687.816 420.411 685.463 417.435 685.388C408.123 685.248 400.342 709.091 400.342 736.319C400.342 763.547 407.9 786.222 417.214 786.222C421.724 786.222 426.889 780.735 429.914 772.313C425.304 787.207 419.774 796.419 412.152 796.28Z" fill="#3E3A33"/>
<path d="M412.268 795.673C401.612 795.475 391.742 771.124 391.742 738.073C391.742 705.023 401.614 679.111 412.268 679.304C417.176 679.424 421.245 682.812 424.905 690.223C422.919 687.816 420.301 685.12 417.09 685.023C407.78 684.834 399.922 709.267 399.922 736.497C399.922 763.728 407.482 786.604 416.798 786.604C421.307 786.604 426.827 781.012 429.854 772.588C425.021 787.094 419.89 795.857 412.268 795.673Z" fill="#473F38"/>
<path d="M412.385 795.062C402.103 794.817 392.227 771.076 392.227 738.025C392.227 704.975 402.103 679.279 412.385 679.524C417.291 679.672 421.245 682.811 424.905 690.222C422.918 687.815 420.192 684.775 416.751 684.653C407.44 684.419 399.505 709.444 399.505 736.671C399.505 763.897 407.067 786.979 416.384 786.979C420.893 786.979 426.771 781.282 429.798 772.858C424.739 786.979 420.005 795.292 412.385 795.062V795.062Z" fill="#4F443C"/>
<path d="M412.505 794.453C402.598 794.159 392.711 771.027 392.711 737.976C392.711 704.926 402.596 679.45 412.505 679.744C417.411 679.922 421.246 682.812 424.906 690.222C422.92 687.816 420.082 684.435 416.409 684.286C407.103 684.003 399.091 709.623 399.091 736.847C399.091 764.071 406.655 787.36 415.971 787.36C420.481 787.36 426.717 781.553 429.742 773.129C424.462 786.868 420.122 794.73 412.505 794.453V794.453Z" fill="#574A41"/>
<path d="M412.621 793.843C403.087 793.502 393.191 770.981 393.191 737.927C393.191 704.872 403.085 679.623 412.621 679.962C417.527 680.173 421.246 682.811 424.906 690.222C422.92 687.815 419.97 684.093 416.07 683.919C406.764 683.591 398.675 709.799 398.675 737.023C398.675 764.247 406.243 787.737 415.557 787.737C420.067 787.737 426.659 781.825 429.684 773.401C424.181 786.754 420.238 794.167 412.621 793.843Z" fill="#5F4F46"/>
<path d="M412.74 793.232C403.578 792.841 393.676 770.928 393.676 737.88C393.676 704.828 403.576 679.791 412.74 680.184C417.644 680.418 421.246 682.812 424.906 690.223C422.919 687.816 419.86 683.748 415.729 683.555C406.423 683.179 398.256 709.978 398.256 737.202C398.256 764.426 405.826 788.12 415.143 788.12C419.652 788.12 426.598 782.101 429.625 773.679C423.9 786.641 420.356 793.601 412.74 793.232Z" fill="#67564C"/>
<path d="M412.858 792.623C404.069 792.183 394.16 770.878 394.16 737.83C394.16 704.782 404.069 679.962 412.858 680.402C417.762 680.671 421.246 682.811 424.905 690.222C422.919 687.815 419.75 683.404 415.385 683.187C406.081 682.764 397.837 710.153 397.837 737.379C397.837 764.605 405.41 788.499 414.726 788.499C419.236 788.499 426.54 782.372 429.565 773.952C423.618 786.529 420.473 793.04 412.858 792.623Z" fill="#6F5C52"/>
<path d="M412.977 792.012C404.56 791.525 394.645 770.833 394.645 737.779C394.645 704.724 404.56 680.132 412.977 680.619C417.879 680.918 421.245 682.811 424.907 690.222C422.921 687.816 419.641 683.063 415.045 682.818C405.742 682.348 397.423 710.327 397.423 737.555C397.423 764.784 404.997 788.875 414.314 788.875C418.823 788.875 426.484 782.645 429.511 774.225C423.341 786.419 420.589 792.473 412.977 792.012Z" fill="#766359"/>
<path d="M413.095 791.404C405.051 790.868 395.129 770.784 395.129 737.734C395.129 704.683 405.051 680.306 413.095 680.843C417.997 681.169 421.247 682.811 424.907 690.222C422.92 687.816 419.531 682.721 414.704 682.453C405.402 681.935 397.006 710.503 397.006 737.734C397.006 764.964 404.585 789.258 413.899 789.258C418.409 789.258 426.428 782.918 429.452 774.498C423.06 786.306 420.706 791.911 413.095 791.404Z" fill="#7E6B60"/>
<path d="M233.242 603.598L233.467 603.594C243.841 603.594 252.253 628.173 252.253 658.497C252.253 688.821 243.841 713.404 233.467 713.404L198.562 717.605V604.195L233.242 603.598Z" fill="#1D2D28"/>
<path fill-rule="evenodd" clip-rule="evenodd" d="M217.963 660.901C217.963 645.861 215.919 631.438 212.28 620.803C208.642 610.169 203.707 604.194 198.561 604.194C193.416 604.194 188.481 610.169 184.843 620.803C181.204 631.438 179.16 645.861 179.16 660.901C179.16 675.94 181.204 690.364 184.843 700.998C188.481 711.633 193.416 717.607 198.561 717.607C203.707 717.607 208.642 711.633 212.28 700.998C215.919 690.364 217.963 675.94 217.963 660.901Z" fill="#1D2D28"/>
<path fill-rule="evenodd" clip-rule="evenodd" d="M198.561 717.607C190.016 717.607 182.759 701.457 180.172 679.027C183.42 696.416 188.485 705.896 195.407 705.896C204.943 705.896 214.476 686.096 214.476 658.222C214.476 637.571 208.611 615.154 201.69 604.927C210.919 609.298 217.966 632.696 217.966 660.901C217.964 692.219 209.276 717.607 198.561 717.607Z" fill="#1D2D28"/>
<path fill-rule="evenodd" clip-rule="evenodd" d="M198.563 717.347C190.351 717.347 183.323 702.197 180.676 680.802C183.906 697.233 188.787 706.43 195.639 706.441C205.303 706.465 214.583 686.046 214.583 658.221C214.583 637.936 208.905 615.935 202.147 605.581C211.065 610.349 217.857 633.284 217.857 660.901C217.857 692.268 209.151 717.347 198.563 717.347Z" fill="#28312B"/>
<path fill-rule="evenodd" clip-rule="evenodd" d="M198.562 717.088C190.681 717.088 183.881 702.94 181.18 682.577C184.393 698.056 189.089 706.963 195.868 706.987C205.659 707.032 214.688 685.997 214.688 658.222C214.688 638.301 209.194 616.715 202.6 606.238C211.213 611.404 217.749 633.874 217.749 660.901C217.751 692.32 209.025 717.088 198.562 717.088Z" fill="#31352F"/>
<path fill-rule="evenodd" clip-rule="evenodd" d="M198.562 716.826C191.013 716.826 184.442 703.681 181.684 684.353C184.882 698.874 189.391 707.498 196.099 707.532C206.019 707.599 214.797 685.946 214.797 658.222C214.797 638.666 209.49 617.494 203.058 606.896C211.36 612.46 217.644 634.467 217.644 660.901C217.644 692.369 208.898 716.826 198.562 716.826V716.826Z" fill="#3A3832"/>
<path fill-rule="evenodd" clip-rule="evenodd" d="M198.56 716.564C191.346 716.564 185.002 704.421 182.184 686.126C185.367 699.69 189.69 708.03 196.329 708.077C206.375 708.165 214.9 685.896 214.9 658.222C214.9 639.033 209.78 618.278 203.511 607.548C211.506 613.51 217.532 635.053 217.532 660.901C217.535 692.418 208.767 716.564 198.56 716.564V716.564Z" fill="#423C35"/>
<path fill-rule="evenodd" clip-rule="evenodd" d="M198.56 716.302C191.676 716.302 185.562 705.162 182.688 687.902C185.858 700.512 189.99 708.563 196.561 708.621C206.731 708.735 215.012 685.845 215.012 658.22C215.012 639.394 210.075 619.057 203.972 608.205C211.656 614.566 217.429 635.644 217.429 660.899C217.427 692.47 208.64 716.302 198.56 716.302V716.302Z" fill="#494039"/>
<path fill-rule="evenodd" clip-rule="evenodd" d="M198.562 716.042C192.01 716.042 186.124 705.902 183.191 689.677C186.345 701.329 190.294 709.095 196.792 709.165C207.093 709.299 215.119 685.793 215.119 658.221C215.119 639.763 210.369 619.838 204.429 608.861C211.804 615.62 217.324 636.238 217.324 660.9C217.322 692.519 208.513 716.042 198.562 716.042V716.042Z" fill="#50453D"/>
<path fill-rule="evenodd" clip-rule="evenodd" d="M198.56 715.782C192.343 715.782 186.684 706.643 183.691 691.45C186.83 702.146 190.593 709.632 197.022 709.711C207.445 709.866 215.222 685.744 215.222 658.222C215.222 640.128 210.659 620.618 204.88 609.517C211.946 616.672 217.212 636.829 217.212 660.901C217.215 692.571 208.385 715.782 198.56 715.782V715.782Z" fill="#574941"/>
<path fill-rule="evenodd" clip-rule="evenodd" d="M198.56 715.523C192.675 715.523 187.244 707.384 184.195 693.224C187.319 702.968 190.895 710.164 197.253 710.259C207.805 710.435 215.331 685.695 215.331 658.222C215.331 640.493 210.957 621.4 205.339 610.174C212.094 617.731 217.107 637.419 217.107 660.901C217.107 692.621 208.258 715.523 198.56 715.523V715.523Z" fill="#5D4E45"/>
<path fill-rule="evenodd" clip-rule="evenodd" d="M198.562 715.259C193.01 715.259 187.805 708.127 184.699 694.999C187.805 703.786 191.197 710.697 197.485 710.802C208.166 711.002 215.438 685.641 215.438 658.22C215.438 640.856 211.25 622.176 205.795 610.826C212.244 618.78 217.002 638.009 217.002 660.899C217.002 692.672 208.131 715.259 198.562 715.259V715.259Z" fill="#64534A"/>
<path fill-rule="evenodd" clip-rule="evenodd" d="M198.56 714.999C193.338 714.999 188.366 708.87 185.199 696.777C188.29 704.604 191.498 711.229 197.712 711.349C208.52 711.57 215.543 685.594 215.543 658.222C215.543 641.223 211.542 622.958 206.248 611.485C212.388 619.837 216.89 638.602 216.89 660.901C216.89 692.721 208.003 714.999 198.56 714.999V714.999Z" fill="#6A594F"/>
<path fill-rule="evenodd" clip-rule="evenodd" d="M198.561 714.739C193.674 714.739 188.927 709.61 185.707 698.549C188.783 705.426 191.802 711.763 197.945 711.894C208.882 712.137 215.652 685.544 215.652 658.221C215.652 641.588 211.838 623.739 206.706 612.14C212.539 620.89 216.785 639.192 216.785 660.901C216.785 692.772 207.876 714.739 198.561 714.739Z" fill="#715F54"/>
<path fill-rule="evenodd" clip-rule="evenodd" d="M198.559 714.479C194.005 714.479 189.487 710.349 186.207 700.325C189.266 706.244 192.098 712.298 198.175 712.44C209.236 712.706 215.755 685.493 215.755 658.222C215.755 641.953 212.128 624.519 207.159 612.797C212.681 621.945 216.675 639.782 216.675 660.901C216.678 692.822 207.749 714.479 198.559 714.479V714.479Z" fill="#78655A"/>
<path fill-rule="evenodd" clip-rule="evenodd" d="M198.563 714.219C194.339 714.219 190.049 711.091 186.715 702.1C189.759 707.062 192.404 712.83 198.411 712.985C209.6 713.27 215.868 685.441 215.868 658.219C215.868 642.318 212.427 625.298 207.622 613.449C212.835 622.994 216.574 640.368 216.574 660.898C216.574 692.871 207.624 714.219 198.563 714.219V714.219Z" fill="#7E6B60"/>
<path fill-rule="evenodd" clip-rule="evenodd" d="M188.848 631.346H208.217V645.798H188.848V631.346Z" fill="url(#paint7_linear_109_1567)"/>
<path fill-rule="evenodd" clip-rule="evenodd" d="M188.848 644.565H208.217V689.194H188.848V644.565Z" fill="url(#paint8_linear_109_1567)"/>
<path fill-rule="evenodd" clip-rule="evenodd" d="M183.065 633.005L221.306 644.705L217.194 658.164L178.953 646.466L183.065 633.005Z" fill="url(#paint9_linear_109_1567)"/>
<path fill-rule="evenodd" clip-rule="evenodd" d="M179.315 645.285L217.553 656.988L213.756 669.415L175.516 657.713L179.315 645.285Z" fill="url(#paint10_linear_109_1567)"/>
<path fill-rule="evenodd" clip-rule="evenodd" d="M175.875 656.536L214.116 668.236L208.182 687.667L169.941 675.965L175.875 656.536Z" fill="url(#paint11_linear_109_1567)"/>
<path d="M195.494 641.968C199.07 641.968 201.953 650.443 201.953 660.899C201.953 671.354 199.05 679.829 195.474 679.829C193.428 679.829 191.604 677.058 190.418 672.73" stroke="#A9998F" stroke-width="0.2815" stroke-miterlimit="3.8637"/>
<path d="M194.738 696.65C187.766 696.65 182.113 681.266 182.113 662.288C182.113 643.31 187.766 627.924 194.738 627.924C197.559 627.924 200.163 630.442 202.268 634.697C201.128 633.315 199.876 632.555 198.563 632.555C193.215 632.555 188.877 645.225 188.877 660.863C188.877 676.5 193.213 689.171 198.563 689.171C201.152 689.171 203.505 686.202 205.241 681.367C202.978 690.583 199.118 696.65 194.738 696.65V696.65Z" fill="#1D2D28"/>
<path d="M194.803 696.3C188.044 696.272 182.387 681.235 182.387 662.26C182.387 643.284 188.044 628.024 194.803 628.05C197.622 628.067 200.16 630.441 202.264 634.699C201.125 633.316 199.808 632.359 198.366 632.343C193.018 632.316 188.638 645.33 188.638 660.963C188.638 676.596 192.975 689.387 198.326 689.387C200.913 689.387 203.47 686.358 205.207 681.521C202.813 690.516 199.182 696.328 194.803 696.3Z" fill="#2A322C"/>
<path d="M194.874 695.95C188.329 695.896 182.668 681.212 182.668 662.23C182.668 643.248 188.331 628.119 194.874 628.177C197.693 628.213 200.164 630.444 202.267 634.699C201.128 633.316 199.748 632.161 198.171 632.134C192.826 632.08 188.4 645.433 188.4 661.066C188.4 676.7 192.738 689.608 198.088 689.608C200.677 689.608 203.438 686.519 205.176 681.682C202.657 690.452 199.253 696.004 194.874 695.95Z" fill="#353630"/>
<path d="M194.943 695.6C188.611 695.516 182.945 681.182 182.945 662.204C182.945 643.226 188.611 628.217 194.943 628.303C197.76 628.352 200.165 630.441 202.267 634.698C201.128 633.316 199.687 631.966 197.977 631.923C192.631 631.841 188.16 645.534 188.16 661.169C188.16 676.804 192.5 689.825 197.852 689.825C200.442 689.825 203.406 686.671 205.142 681.836C202.492 690.387 199.32 695.679 194.943 695.6V695.6Z" fill="#3E3A33"/>
<path d="M195.008 695.25C188.89 695.137 183.223 681.154 183.223 662.176C183.223 643.198 188.892 628.319 195.008 628.43C197.827 628.497 200.161 630.444 202.266 634.699C201.127 633.316 199.623 631.769 197.778 631.713C192.432 631.603 187.919 645.633 187.919 661.27C187.919 676.908 192.26 690.042 197.611 690.042C200.2 690.042 203.373 686.83 205.108 681.992C202.332 690.323 199.385 695.356 195.008 695.25V695.25Z" fill="#473F38"/>
<path d="M195.076 694.9C189.172 694.761 183.5 681.126 183.5 662.146C183.5 643.166 189.174 628.413 195.076 628.557C197.894 628.64 200.162 630.444 202.266 634.699C201.127 633.316 199.559 631.571 197.583 631.5C192.237 631.367 187.681 645.736 187.681 661.371C187.681 677.006 192.023 690.261 197.373 690.261C199.962 690.261 203.339 686.987 205.077 682.152C202.172 690.261 199.452 695.031 195.076 694.9V694.9Z" fill="#4F443C"/>
<path d="M195.145 694.55C189.456 694.382 183.777 681.098 183.777 662.122C183.777 643.146 189.454 628.516 195.145 628.683C197.961 628.784 200.162 630.443 202.265 634.701C201.126 633.318 199.495 631.375 197.387 631.291C192.043 631.13 187.441 645.838 187.441 661.474C187.441 677.109 191.785 690.482 197.136 690.482C199.725 690.482 203.305 687.145 205.043 682.309C202.009 690.192 199.519 694.709 195.145 694.55V694.55Z" fill="#574A41"/>
<path d="M195.214 694.2C189.739 694.005 184.059 681.07 184.059 662.092C184.059 643.114 189.739 628.61 195.214 628.808C198.03 628.926 200.165 630.444 202.267 634.699C201.128 633.316 199.433 631.176 197.194 631.079C191.85 630.89 187.206 645.939 187.206 661.573C187.206 677.206 191.55 690.694 196.9 690.694C199.489 690.694 203.275 687.298 205.011 682.461C201.851 690.13 199.588 694.385 195.214 694.2V694.2Z" fill="#5F4F46"/>
<path d="M195.279 693.848C190.019 693.625 184.332 681.04 184.332 662.06C184.332 643.08 190.017 628.707 195.279 628.93C198.096 629.066 200.162 630.44 202.266 634.697C201.127 633.314 199.368 630.978 196.995 630.867C191.654 630.65 186.962 646.038 186.962 661.676C186.962 677.313 191.308 690.911 196.661 690.911C199.25 690.911 203.238 687.455 204.978 682.62C201.687 690.063 199.651 694.061 195.279 693.848V693.848Z" fill="#67564C"/>
<path d="M195.346 693.496C190.296 693.245 184.609 681.014 184.609 662.036C184.609 643.058 190.296 628.806 195.346 629.059C198.161 629.214 200.16 630.444 202.264 634.699C201.125 633.316 199.304 630.783 196.796 630.656C191.455 630.414 186.722 646.141 186.722 661.777C186.722 677.412 191.071 691.13 196.421 691.13C199.01 691.13 203.204 687.614 204.944 682.775C201.524 690.001 199.716 693.736 195.346 693.496V693.496Z" fill="#6F5C52"/>
<path d="M195.417 693.149C190.584 692.867 184.891 680.985 184.891 662.007C184.891 643.029 190.584 628.903 195.417 629.184C198.232 629.356 200.165 630.442 202.267 634.697C201.128 633.314 199.244 630.584 196.603 630.446C191.262 630.176 186.485 646.24 186.485 661.878C186.485 677.515 190.833 691.347 196.183 691.347C198.772 691.347 203.172 687.771 204.91 682.936C201.366 689.935 199.787 693.413 195.417 693.149V693.149Z" fill="#766359"/>
<path d="M195.484 692.797C190.868 692.49 185.168 680.957 185.168 661.979C185.168 643.001 190.866 629.006 195.484 629.311C198.299 629.499 200.165 630.442 202.267 634.699C201.128 633.317 199.18 630.39 196.411 630.238C191.069 629.94 186.247 646.348 186.247 661.979C186.247 677.61 190.6 691.564 195.948 691.564C198.537 691.564 203.141 687.928 204.878 683.091C201.208 689.87 199.854 693.091 195.484 692.797V692.797Z" fill="#7E6B60"/>
<path fill-rule="evenodd" clip-rule="evenodd" d="M1046.47 603.289C1052.05 616.483 1053.44 641.395 1053.44 667.157C1053.44 669.705 1051.81 673.148 1050.43 676.86C1050.43 676.86 1049.2 677.464 1049.68 680.574C1049.91 682.032 1051.48 681.89 1051.07 684.097L1045.39 744.443C1044.32 767.521 1038.04 762.845 1034.67 775.035C1030.69 789.425 1029.08 797.793 1027.45 812.637L658.952 874.042L646.651 872.419L631.918 869.178L473.412 800.479C463.808 732.017 458.48 643.883 412.004 636.67C377.071 631.249 373.834 699.595 374.492 759.492L215.178 692.414C210.373 649.982 206.887 605.972 194.284 603.557C177.637 600.367 172.169 637.215 172.437 674.784L162.883 670.377V664.703L144.101 654.012C136.765 595.45 136.58 561.32 143.292 502.682C148.432 457.744 146.553 400.948 166.933 389.14L414.483 226.267C453.318 199.146 474.77 180.898 540.44 167.448C602.41 157.283 698.79 164.498 795.436 189.485C854.17 204.672 941.354 243.424 941.354 243.424C974.336 259.794 977.582 280.221 977.582 280.221C977.582 280.221 971.118 263.014 951.812 257.11C898.186 235.739 866.769 225.956 810.496 213.1C740.568 197.128 670.068 186.74 612.634 185.546C606.315 185.067 599.649 185.396 593.699 185.497L618.684 595.028C649.292 622.443 676.435 630.128 710.741 629.587L1017.51 624.757C1044.32 624.22 1050.22 621 1046.47 603.289V603.289Z" fill="#EAE5E2"/>
<path fill-rule="evenodd" clip-rule="evenodd" d="M750.429 800.533C750.429 800.533 916.146 788.989 1042.18 762.04L1035.06 770.451L1010.23 776.394L887.724 795.35C815.626 803.019 771.75 808.366 706.068 817.224C687.16 819.775 660.332 834.609 660.332 834.609C665.693 798.113 750.429 800.533 750.429 800.533V800.533Z" fill="#D4CBC5"/>
<path fill-rule="evenodd" clip-rule="evenodd" d="M751.195 801.479C751.195 801.479 915.621 789.923 1041.65 762.974L1034.47 771.507L1010.99 777.338L888.488 796.295C816.39 803.963 772.514 809.311 706.832 818.166C687.924 820.717 660.332 834.607 660.332 834.607C666.5 800.167 751.195 801.479 751.195 801.479V801.479Z" fill="#D8CFCA"/>
<path fill-rule="evenodd" clip-rule="evenodd" d="M751.954 802.424C751.954 802.424 915.091 790.859 1041.12 763.912L1033.88 772.566L1011.75 778.285L889.25 797.242C817.151 804.91 773.273 810.256 707.593 819.113C688.685 821.664 660.332 834.609 660.332 834.609C667.302 802.227 751.954 802.424 751.954 802.424V802.424Z" fill="#DBD3CF"/>
<path fill-rule="evenodd" clip-rule="evenodd" d="M752.72 803.366C752.72 803.366 914.565 791.791 1040.6 764.846L1033.29 773.622L1012.52 779.227L890.013 798.184C817.915 805.852 774.037 811.2 708.357 820.058C689.449 822.608 660.332 834.607 660.332 834.607C668.108 804.285 752.72 803.366 752.72 803.366Z" fill="#DFD7D3"/>
<path fill-rule="evenodd" clip-rule="evenodd" d="M753.479 804.316C753.479 804.316 914.037 792.729 1040.07 765.782L1032.71 774.681L1013.28 780.177L890.773 799.133C818.674 806.804 774.798 812.149 709.118 821.005C690.208 823.555 660.332 834.612 660.332 834.612C668.913 806.342 753.479 804.316 753.479 804.316V804.316Z" fill="#E3DCD8"/>
<path fill-rule="evenodd" clip-rule="evenodd" d="M754.243 805.258C754.243 805.258 913.51 793.663 1039.54 766.716L1032.12 775.735L1014.04 781.119L891.536 800.075C819.438 807.744 775.562 813.089 709.882 821.947C690.972 824.498 660.332 834.607 660.332 834.607C669.717 808.399 754.243 805.258 754.243 805.258V805.258Z" fill="#E6E0DD"/>
<path fill-rule="evenodd" clip-rule="evenodd" d="M755.002 806.2C755.002 806.2 912.982 794.594 1039.01 767.647L1031.53 776.791L1014.8 782.061L892.298 801.018C820.199 808.686 776.324 814.034 710.644 822.892C691.734 825.442 660.332 834.607 660.332 834.607C670.52 810.457 755.002 806.2 755.002 806.2Z" fill="#EAE5E2"/>
<path fill-rule="evenodd" clip-rule="evenodd" d="M755.764 807.15C755.764 807.15 912.453 795.531 1038.48 768.584L1030.94 777.845L1015.56 783.006L893.058 801.965C820.959 809.633 777.081 814.979 711.403 823.837C692.493 826.387 660.328 834.61 660.328 834.61C671.324 812.517 755.764 807.15 755.764 807.15Z" fill="#EDE9E6"/>
<path fill-rule="evenodd" clip-rule="evenodd" d="M756.53 808.092C756.53 808.092 911.927 796.465 1037.96 769.516L1030.36 778.899L1016.33 783.953L893.823 802.91C821.725 810.578 777.847 815.924 712.167 824.781C693.257 827.332 660.332 834.607 660.332 834.607C672.129 814.573 756.53 808.092 756.53 808.092V808.092Z" fill="#F1EDEB"/>
<path fill-rule="evenodd" clip-rule="evenodd" d="M757.289 809.036C757.289 809.036 911.399 797.4 1037.43 770.451L1029.77 779.957L1017.09 784.897L894.585 803.854C822.486 811.522 778.61 816.87 712.93 825.728C694.02 828.278 660.332 834.609 660.332 834.609C672.933 816.63 757.289 809.036 757.289 809.036V809.036Z" fill="#F4F2F0"/>
<path fill-rule="evenodd" clip-rule="evenodd" d="M683.928 752.493C683.928 752.493 683.784 756.905 679.101 756.787L654.967 757.055L638.61 755.981C631.75 755.436 632.174 752.761 632.174 752.761L631.906 731.025C631.906 731.025 632.299 728.785 635.392 728.878L657.917 730.488L679.905 729.951C684.515 730.069 684.196 733.44 684.196 733.44L683.928 752.493Z" fill="#D4CBC5"/>
<path fill-rule="evenodd" clip-rule="evenodd" d="M543.415 190.559C534.231 262.293 529.621 391.072 527.369 501.001C490.381 467.969 464.877 454.032 424.356 423.489L380.379 434.224C380.379 434.224 383.069 377.805 386.815 341.91C390.569 305.951 399.686 261.404 399.686 261.404C399.686 261.404 483.349 206.66 543.415 190.559V190.559Z" fill="url(#paint12_linear_109_1567)" stroke="#A9998F" stroke-width="0.25" stroke-miterlimit="3.8637"/>
<path fill-rule="evenodd" clip-rule="evenodd" d="M649.951 582.63L612.633 185.546C670.067 186.742 740.569 197.128 810.494 213.1C866.767 225.956 898.184 235.739 951.81 257.11C971.117 263.014 977.58 280.221 977.58 280.221C977.58 280.221 1032.52 459.986 1039 592.821L660.879 589.491C650.575 591.367 649.951 582.63 649.951 582.63V582.63Z" fill="url(#paint13_linear_109_1567)"/>
<path fill-rule="evenodd" clip-rule="evenodd" d="M529.473 502.923L527.371 501.034C529.626 391.039 534.238 262.16 543.452 190.559C558.166 188.02 574.978 185.815 593.699 185.497L618.568 594.702C614.293 590.962 609.942 586.857 605.63 582.357C605.628 582.357 561.34 531.669 529.473 502.923Z" fill="black" stroke="#A9998F" stroke-width="0.25" stroke-miterlimit="3.8637"/>
<path d="M369.12 420.806L144.77 487.57C147.582 454.255 148.464 418.094 157.943 399.516L387.891 255.5C382.075 288.027 379.464 301.7 375.697 339.346C372.276 373.565 371.265 390.213 369.12 420.806V420.806Z" fill="url(#paint14_linear_109_1567)" stroke="#A9998F" stroke-width="0.25" stroke-miterlimit="3.8637"/>
<path d="M517.137 604.362V695.066C517.137 723.511 525.718 823.875 525.718 823.875" stroke="#A9998F" stroke-width="0.25" stroke-miterlimit="3.8637"/>
<path d="M520.894 582.625C520.894 578.853 520.244 575.235 519.087 572.568C517.931 569.901 516.362 568.402 514.726 568.402C513.09 568.402 511.522 569.901 510.365 572.568C509.208 575.235 508.559 578.853 508.559 582.625C508.559 586.397 509.208 590.015 510.365 592.682C511.522 595.349 513.09 596.848 514.726 596.848C516.362 596.848 517.931 595.349 519.087 592.682C520.244 590.015 520.894 586.397 520.894 582.625Z" stroke="#A9998F" stroke-width="0.25" stroke-miterlimit="3.8637"/>
<path fill-rule="evenodd" clip-rule="evenodd" d="M281.388 446.916L277.992 447.927C279.719 423.303 280.534 409.9 283.287 382.358C286.32 352.056 288.422 341.051 293.101 314.869L296.634 312.655C291.912 339.074 289.791 350.18 286.732 380.755C283.952 408.543 283.13 422.066 281.388 446.916V446.916Z" fill="#A9998F"/>
<path fill-rule="evenodd" clip-rule="evenodd" d="M222.499 464.441L219.629 465.293C221.088 444.492 221.774 433.17 224.102 409.903C226.661 384.304 228.437 375.008 232.393 352.889L235.377 351.02C231.389 373.338 229.596 382.72 227.013 408.548C224.662 432.026 223.971 443.449 222.499 464.441Z" fill="#A9998F"/>
<path fill-rule="evenodd" clip-rule="evenodd" d="M179.199 477.323L176.719 478.062C177.98 460.072 178.574 450.278 180.587 430.156C182.803 408.015 184.339 399.973 187.758 380.845L190.341 379.229C186.889 398.531 185.338 406.646 183.105 428.986C181.071 449.288 180.473 459.17 179.199 477.323Z" fill="#A9998F"/>
<path fill-rule="evenodd" clip-rule="evenodd" d="M977.582 280.223C1010.54 278.044 1066.85 276.434 1082.94 291.999C1085.86 294.822 1086.91 298.36 1088.84 302.733C1086.02 301.79 1083.34 301.275 1079.72 301.123C1075.6 300.949 1072.32 301.372 1069.19 302.61L1067.92 300.586C1061.49 295.756 1056.66 294.682 1026.63 295.756C1009.23 296.378 995.102 296.303 983.209 306.614L977.582 280.223V280.223Z" fill="black" stroke="white" stroke-width="0.5" stroke-miterlimit="3.8637"/>
<path fill-rule="evenodd" clip-rule="evenodd" d="M1079.72 301.12C1072.71 300.826 1068.15 302.254 1062.56 306.487L1084.01 410.072C1087.36 413.556 1091.07 414.739 1095.81 413.828C1100.62 412.905 1103.69 410.348 1105.46 405.778C1105.13 387.109 1104.42 376.555 1102.24 358.011C1099.82 337.333 1097.81 325.699 1093.13 305.414C1088.53 302.415 1085.21 301.352 1079.72 301.12Z" fill="black" stroke="white" stroke-width="0.5" stroke-miterlimit="3.8637"/>
<path d="M473.445 800.477C473.445 800.477 464.043 739.61 464.043 705.261V567.327" stroke="#A9998F" stroke-width="0.25" stroke-miterlimit="3.8637"/>
<path d="M517.136 604.362L421.709 536.734L139.438 549.242" stroke="#A9998F" stroke-width="0.25" stroke-miterlimit="3.8637"/>
<path d="M829.004 739.556L971.602 727.21" stroke="#D4CBC5" stroke-width="0.5" stroke-miterlimit="3.8637"/>
<path d="M961.193 728.174L958.113 743.034C915.919 748.455 888.035 751.641 846.064 754.49L843.473 738.109L961.193 728.174V728.174Z" stroke="#D4CBC5" stroke-width="0.5" stroke-miterlimit="3.8637"/>
<path fill-rule="evenodd" clip-rule="evenodd" d="M725.76 723.779H731.392L731.66 753.566L725.492 753.298L725.76 723.779Z" fill="url(#paint15_linear_109_1567)"/>
<path fill-rule="evenodd" clip-rule="evenodd" d="M688.755 725.121L725.76 723.779L725.492 753.298L688.219 754.64L688.755 725.121Z" fill="url(#paint16_linear_109_1567)"/>
<path fill-rule="evenodd" clip-rule="evenodd" d="M731.66 723.779H734.878V753.298L731.66 753.566V723.779Z" fill="#F4F2F0"/>
<path fill-rule="evenodd" clip-rule="evenodd" d="M735.143 723.779L769.735 721.9V752.224L734.875 753.298L735.143 723.779Z" fill="url(#paint17_linear_109_1567)"/>
<path fill-rule="evenodd" clip-rule="evenodd" d="M716.108 738.807C716.108 736.458 715.091 734.206 713.28 732.545C711.47 730.884 709.014 729.951 706.454 729.951C703.894 729.951 701.439 730.884 699.628 732.545C697.818 734.206 696.801 736.458 696.801 738.807C696.801 741.156 697.818 743.408 699.628 745.069C701.439 746.729 703.894 747.662 706.454 747.662C709.014 747.662 711.47 746.729 713.28 745.069C715.091 743.408 716.108 741.156 716.108 738.807Z" fill="url(#paint18_linear_109_1567)"/>
<path fill-rule="evenodd" clip-rule="evenodd" d="M757.401 739.075C757.401 737.083 756.752 735.171 755.595 733.762C754.438 732.353 752.87 731.562 751.234 731.562C749.598 731.562 748.029 732.353 746.873 733.762C745.716 735.171 745.066 737.083 745.066 739.075C745.066 741.068 745.716 742.979 746.873 744.389C748.029 745.798 749.598 746.589 751.234 746.589C752.87 746.589 754.438 745.798 755.595 744.389C756.752 742.979 757.401 741.068 757.401 739.075Z" fill="url(#paint19_linear_109_1567)"/>
<path fill-rule="evenodd" clip-rule="evenodd" d="M827.233 832.713C827.171 834.051 828.201 834.974 829.522 834.762L908.916 822.108C910.238 821.898 911.469 820.64 911.654 819.315L914.202 801.058C914.387 799.732 913.456 798.815 912.134 799.021L830.595 811.692C829.273 811.898 828.141 813.16 828.078 814.498L827.233 832.713Z" fill="#A9998F"/>
<path d="M601.498 316.382L532.523 340.375" stroke="white" stroke-width="0.25" stroke-miterlimit="3.8637"/>
<path fill-rule="evenodd" clip-rule="evenodd" d="M589.785 230.557C588.564 230.593 544.523 250.859 543.517 251.014C543.424 253.274 543.156 255.292 543.156 256.57L589.978 234.565L589.785 230.557V230.557Z" fill="black" stroke="white" stroke-width="0.25" stroke-miterlimit="3.8637"/>
<path fill-rule="evenodd" clip-rule="evenodd" d="M589.591 226.55C587.15 226.623 545.893 245.15 543.879 245.459C543.975 243.626 544.113 242.001 544.239 239.903C547.26 239.438 585.738 222.651 589.398 222.542L589.591 226.55V226.55Z" fill="black" stroke="white" stroke-width="0.25" stroke-miterlimit="3.8637"/>
<path fill-rule="evenodd" clip-rule="evenodd" d="M589.207 218.534C584.327 218.683 548.63 233.73 544.602 234.35C544.717 232.525 544.835 230.716 544.964 228.794C549.997 228.019 582.913 214.711 589.012 214.526L589.207 218.534Z" fill="black" stroke="white" stroke-width="0.25" stroke-miterlimit="3.8637"/>
<path fill-rule="evenodd" clip-rule="evenodd" d="M588.818 210.518C581.499 210.739 551.365 222.306 545.324 223.238C545.446 221.467 545.558 219.479 545.685 217.682C552.732 216.596 580.087 206.77 588.627 206.51L588.818 210.518Z" fill="black" stroke="white" stroke-width="0.25" stroke-miterlimit="3.8637"/>
<path fill-rule="evenodd" clip-rule="evenodd" d="M588.239 198.496C577.258 198.829 555.467 205.175 546.405 206.575C546.262 208.526 546.187 210.145 546.043 212.131C554.098 210.888 578.672 202.8 588.432 202.504L588.239 198.496V198.496Z" fill="black" stroke="white" stroke-width="0.25" stroke-miterlimit="3.8637"/>
<path fill-rule="evenodd" clip-rule="evenodd" d="M588.044 194.488C575.844 194.857 556.833 199.464 546.766 201.018C546.903 199.183 546.993 197.206 547.126 195.462C558.202 193.753 574.432 190.885 587.851 190.479L588.044 194.488V194.488Z" fill="black" stroke="white" stroke-width="0.25" stroke-miterlimit="3.8637"/>
<path d="M628.722 867.885C622.659 811.975 620.385 780.256 618.497 724.048C616.805 673.627 616.811 645.119 618.497 594.701" stroke="#A9998F" stroke-width="0.25" stroke-miterlimit="3.8637"/>
<path d="M527.419 501.308C525.218 608.864 525.184 698.283 525.184 698.283C525.184 726.729 533.764 827.093 533.764 827.093" stroke="#A9998F" stroke-width="0.25" stroke-miterlimit="3.8637"/>
<path d="M914.53 616.698L906.374 614.877L904.664 614.944L903.844 614.978H902.203C901.997 615.528 901.673 616.038 901.077 616.038C900.564 616.038 900.307 615.815 899.811 615.697C899.573 615.697 899.402 615.783 899.196 615.903C899.676 617.116 900.12 617.734 900.494 619.016C900.015 619.05 899.743 619.016 899.264 619.016C899.033 619.016 898.81 618.995 898.595 618.954C900.135 623.069 902.973 625.83 906.223 625.83C910.038 625.83 913.283 622.026 914.53 616.698V616.698ZM914.871 608.902C914.452 609.274 913.965 609.536 913.277 609.594C912.166 609.677 910.613 609.523 910.613 610.633C910.613 611.165 911.194 611.249 911.638 611.524C912.492 612.037 912.801 612.619 913.569 613.233C914.041 613.606 914.489 613.778 914.98 613.896C915.04 613.233 915.072 612.561 915.072 611.876C915.072 610.854 915.004 609.858 914.871 608.902ZM903.016 598.864C903.443 599.109 903.823 599.459 904.323 599.778C905.194 600.341 906.101 600.751 906.101 601.794C906.101 603.179 905.657 604.016 904.87 605.145C904.494 605.695 904.119 606.054 904.119 606.719C904.119 607.404 904.971 607.608 905.657 607.608C907.296 607.608 908.083 606.444 909.722 606.444C910.576 606.444 911.02 606.854 911.842 607.06C912.91 607.329 913.603 607.337 914.594 607.335C913.399 601.857 910.102 597.919 906.223 597.919C905.093 597.921 904.012 598.256 903.016 598.864V598.864ZM899.335 600.118C900.24 599.418 900.702 598.546 901.864 598.546C903.156 597.569 904.612 597.007 906.223 597.007C910.801 597.007 914.298 601.53 915.516 607.327C915.896 607.305 916.212 607.232 916.574 606.996C916.224 607.346 915.935 607.709 915.654 608.048C915.87 609.285 915.982 610.568 915.982 611.876C915.982 612.614 915.945 613.348 915.875 614.068C916.726 614.227 917.052 614.467 917.632 614.467C918.385 614.467 918.794 614.194 919.545 614.194C919.803 614.194 919.989 614.45 919.989 614.705C919.989 616.21 918.591 617.133 917.085 617.271L915.409 616.893C914.103 622.462 910.673 626.738 906.221 626.738C902.223 626.738 899.046 623.288 897.497 618.55C896.45 617.945 895.742 616.809 895.523 615.491C895.199 613.456 894.566 612.361 894.566 610.294C894.566 609.3 894.976 608.516 895.864 608.089C896.291 607.883 896.649 608.207 897.076 608.02C897.589 607.78 897.4 607.148 897.69 606.65C898.1 605.951 898.784 605.661 898.784 604.838C898.784 604.583 898.597 604.325 898.34 604.325C897.915 604.325 897.709 604.667 897.282 604.667C896.686 604.667 896.07 604.289 896.07 603.694C896.07 603.127 896.377 602.84 896.667 602.378C896.669 602.378 897.915 601.212 899.335 600.118V600.118Z" fill="white" stroke="#E2001A" stroke-width="0.25" stroke-miterlimit="3.8637"/>
<path d="M968.051 740.25L979.401 701.985L1050.39 692.642" stroke="#A9998F" stroke-width="0.25" stroke-miterlimit="3.8637"/>
<path fill-rule="evenodd" clip-rule="evenodd" d="M612.601 185.192L649.953 582.628C649.953 582.628 650.577 591.365 660.881 589.491L1039 592.821C1039 592.821 1041.51 594.057 1042.78 595.275C1045.26 597.655 1045.78 599.678 1046.47 603.287C1050.23 620.998 1044.33 624.218 1017.51 624.755L710.746 629.585C676.44 630.126 649.294 622.441 618.689 595.026L593.699 185.497C599.65 185.396 606.315 185.067 612.601 185.192V185.192Z" fill="black"/>
<path fill-rule="evenodd" clip-rule="evenodd" d="M683.392 749.273C683.392 749.273 683.249 753.685 678.566 753.567L654.432 753.835L638.075 752.762C631.214 752.216 631.639 749.542 631.639 749.542L631.371 727.805C631.371 727.805 631.764 725.566 634.857 725.658L657.382 727.268L679.37 726.731C683.98 726.85 683.661 730.22 683.661 730.22L683.392 749.273Z" fill="url(#paint20_linear_109_1567)" stroke="#FCC000" stroke-width="0.5" stroke-miterlimit="3.8637" stroke-linejoin="round"/>
<path d="M420.168 544.56V605.171L397.02 603.144V545.244L420.168 544.56Z" stroke="#A9998F" stroke-width="0.25" stroke-miterlimit="3.8637"/>
<path d="M230.522 698.653C230.522 698.653 226.004 687.552 226.004 624.925V463.313" stroke="#A9998F" stroke-width="0.25" stroke-miterlimit="3.8637"/>
<path d="M292.442 724.819C292.442 724.819 287.07 711.629 287.07 637.198V445.366" stroke="#A9998F" stroke-width="0.2971" stroke-miterlimit="3.8637"/>
<path d="M256.953 709.82C256.953 709.82 252.07 697.833 252.07 630.162V455.709" stroke="#A9998F" stroke-width="0.2701" stroke-miterlimit="3.8637"/>
<path d="M223.779 568.135H210.371V593.36L223.779 593.628V568.135Z" stroke="#A9998F" stroke-width="0.25" stroke-miterlimit="3.8637"/>
<path fill-rule="evenodd" clip-rule="evenodd" d="M708.188 315.522L815.324 284.079L819.605 300.99L825.942 308.652L863.698 309.708L879.804 377.35L889.308 400.867L879.804 433.631L876.372 428.346L876.9 419.1L877.427 415.927L866.339 410.115L864.753 402.981L857.097 393.997L855.514 387.127L764.426 374.179L763.369 378.935L756.768 383.164L756.24 391.354L757.296 405.358L758.353 419.628L750.431 418.041L747.265 410.115L746.737 401.925L743.039 396.639L746.207 393.469L748.32 378.406L748.848 370.48L745.149 365.989L738.021 364.933L731.686 369.16L710.298 367.045L709.243 353.306L712.414 350.929L716.108 339.83L716.635 329.525L712.414 325.826L708.715 323.184L708.188 315.522Z" fill="white"/>
<path fill-rule="evenodd" clip-rule="evenodd" d="M982.243 374.707L976.698 351.985L965.609 314.993L921.516 320.012L912.805 336.131V357.533L918.878 379.993L915.179 385.806L951.086 379.993L982.243 374.707Z" fill="white"/>
<path fill-rule="evenodd" clip-rule="evenodd" d="M980.394 400.338L995.442 530.337H984.882L975.112 521.616L957.951 509.461L959.008 502.329L953.729 495.988L948.447 493.345L943.43 494.929L941.319 500.743L921.516 490.174L920.461 408L980.394 400.338Z" fill="white"/>
<path fill-rule="evenodd" clip-rule="evenodd" d="M584.176 219.541C587.151 210.449 591.547 201.757 596.511 198.341C605.092 192.437 623.862 184.655 643.705 179.288L645.314 196.463C628.153 194.853 601.606 204.513 593.561 216.321C593.561 216.321 587.842 218.307 584.176 219.541Z" fill="black" stroke="white" stroke-width="0.25" stroke-miterlimit="3.8637"/>
<path fill-rule="evenodd" clip-rule="evenodd" d="M584.174 219.541L583.102 194.316C588.696 189.255 592.371 186.804 599.191 183.581C614.962 176.128 626.802 174.985 643.704 179.288L645.313 196.462C628.151 194.852 616.88 192.675 602.408 201.293C593.765 206.441 589.318 210.893 584.174 219.541Z" fill="black" stroke="white" stroke-width="0.25" stroke-miterlimit="3.8637"/>
<path fill-rule="evenodd" clip-rule="evenodd" d="M620.644 196.462C619.447 191.997 619.735 188.832 621.717 184.655C624.072 179.691 627.112 176.84 632.443 175.531C635.287 174.831 637.111 174.818 639.951 175.531C645.411 176.903 648.129 180.17 650.677 185.191C652.516 188.815 653.046 191.329 652.822 195.389C647.766 200.601 642.845 202.609 635.588 202.424C629.317 202.267 625.306 200.666 620.644 196.462Z" fill="black" stroke="white" stroke-width="0.25" stroke-miterlimit="3.8637"/>
<path fill-rule="evenodd" clip-rule="evenodd" d="M624.934 195.39C616.353 195.926 612.599 206.124 614.208 216.321L618.498 326.883C618.498 336.544 621.716 343.521 628.151 342.984L666.765 341.911C672.665 341.374 671.592 330.103 671.592 330.103L664.62 218.468C664.62 200.757 652.821 195.39 652.821 195.39H624.934V195.39Z" fill="black" stroke="white" stroke-width="0.25" stroke-miterlimit="3.8637"/>
<path d="M605.663 582.357L536.133 510.207C536.133 510.207 536.8 431.631 539.413 347.007L594.105 328.497L605.663 582.357V582.357ZM540.024 333.057C540.833 308.682 541.723 284.139 542.86 261.132L590.102 239.387L593.562 313.736L540.024 333.057Z" fill="url(#paint21_linear_109_1567)" stroke="#A9998F" stroke-width="0.25" stroke-miterlimit="3.8637"/>
<path fill-rule="evenodd" clip-rule="evenodd" d="M1046.88 721.901L1048.33 701.292C1048.33 701.292 1052.76 700.789 1052.83 705.512L1051.69 717.679C1051.51 721.38 1046.88 721.901 1046.88 721.901Z" fill="url(#paint22_linear_109_1567)" stroke="#FCC000" stroke-width="0.5" stroke-miterlimit="3.8637" stroke-linejoin="round"/>
<path d="M678.297 726.731L678.565 753.567" stroke="#FCC000" stroke-width="0.5" stroke-miterlimit="3.8637" stroke-linejoin="round"/>
<path d="M674.008 727L674.276 753.835" stroke="#FCC000" stroke-width="0.5" stroke-miterlimit="3.8637" stroke-linejoin="round"/>
<path d="M669.715 727.268L669.983 754.103" stroke="#FCC000" stroke-width="0.5" stroke-miterlimit="3.8637" stroke-linejoin="round"/>
<path d="M665.426 727.536L665.694 754.371" stroke="#FCC000" stroke-width="0.5" stroke-miterlimit="3.8637" stroke-linejoin="round"/>
<path d="M661.137 727.805L661.405 754.64" stroke="#FCC000" stroke-width="0.5" stroke-miterlimit="3.8637" stroke-linejoin="round"/>
<path d="M656.039 727L656.307 753.835" stroke="#FCC000" stroke-width="0.5" stroke-miterlimit="3.8637" stroke-linejoin="round"/>
<path d="M651.48 727L651.749 753.835" stroke="#FCC000" stroke-width="0.5" stroke-miterlimit="3.8637" stroke-linejoin="round"/>
<path d="M646.656 726.194L646.924 753.03" stroke="#FCC000" stroke-width="0.5" stroke-miterlimit="3.8637" stroke-linejoin="round"/>
<path d="M642.902 726.194L643.171 753.03" stroke="#FCC000" stroke-width="0.5" stroke-miterlimit="3.8637" stroke-linejoin="round"/>
<path d="M637.27 725.926L637.538 752.761" stroke="#FCC000" stroke-width="0.5" stroke-miterlimit="3.8637" stroke-linejoin="round"/>
<path d="M635.391 725.39L635.659 752.225" stroke="#FCC000" stroke-width="0.5" stroke-miterlimit="3.8637" stroke-linejoin="round"/>
<path d="M632.98 726.194L633.249 751.688" stroke="#FCC000" stroke-width="0.5" stroke-miterlimit="3.8637" stroke-linejoin="round"/>
<path d="M639.949 725.926L640.217 752.761" stroke="#FCC000" stroke-width="0.5" stroke-miterlimit="3.8637" stroke-linejoin="round"/>
<path d="M1047.52 730.104C1047.52 730.104 999.203 737.718 968.194 741.733C915.962 748.496 886.393 752.001 833.824 755.284C754.55 760.234 644.563 768.598 630.173 756.263C629.669 747.386 629.133 737.998 628.686 727.804C628.474 722.957 628.283 718.318 628.109 713.846" stroke="#D4CBC5" stroke-width="0.5" stroke-miterlimit="3.8637"/>
<path d="M628.145 713.846C628.145 713.846 648.612 715.741 661.726 716.591C723.913 720.621 759.873 716.106 821.486 714.176L832.377 753.352" stroke="#A9998F" stroke-width="1.0001" stroke-miterlimit="3.8637" stroke-linecap="round" stroke-linejoin="round"/>
<path d="M1046.44 731.714C1046.44 731.714 998.129 739.329 967.12 743.343C914.888 750.106 885.318 753.612 832.75 756.894C753.476 761.845 643.489 770.209 629.099 757.873C628.595 748.996 628.058 739.608 627.612 729.415C627.4 724.567 627.209 719.928 627.035 715.456" stroke="white" stroke-width="0.5" stroke-miterlimit="3.8637"/>
<path d="M722.273 723.779V753.298" stroke="#D4CBC5" stroke-width="0.5" stroke-miterlimit="3.8637"/>
<path d="M718.52 723.779V753.298" stroke="#D4CBC5" stroke-width="0.5" stroke-miterlimit="3.8637"/>
<path d="M714.766 723.779V753.298" stroke="#D4CBC5" stroke-width="0.5" stroke-miterlimit="3.8637"/>
<path d="M711.012 723.779V753.298" stroke="#D4CBC5" stroke-width="0.5" stroke-miterlimit="3.8637"/>
<path d="M706.988 724.048V753.567" stroke="#D4CBC5" stroke-width="0.5" stroke-miterlimit="3.8637"/>
<path d="M703.504 724.853V754.371" stroke="#D4CBC5" stroke-width="0.5" stroke-miterlimit="3.8637"/>
<path d="M699.75 724.853V754.371" stroke="#D4CBC5" stroke-width="0.5" stroke-miterlimit="3.8637"/>
<path d="M695.996 725.121V754.64" stroke="#D4CBC5" stroke-width="0.5" stroke-miterlimit="3.8637"/>
<path d="M692.242 725.121V754.64" stroke="#D4CBC5" stroke-width="0.5" stroke-miterlimit="3.8637"/>
<path d="M688.754 725.121L725.491 723.779V753.298" stroke="#A9998F" stroke-width="0.5" stroke-miterlimit="3.8637"/>
<path d="M735.414 723.779V753.298" stroke="#D4CBC5" stroke-width="0.5" stroke-miterlimit="3.8637"/>
<path d="M739.168 723.779V753.298" stroke="#D4CBC5" stroke-width="0.5" stroke-miterlimit="3.8637"/>
<path d="M742.922 723.511V753.03" stroke="#D4CBC5" stroke-width="0.5" stroke-miterlimit="3.8637"/>
<path d="M746.676 723.242V752.761" stroke="#D4CBC5" stroke-width="0.5" stroke-miterlimit="3.8637"/>
<path d="M750.43 722.975V752.493" stroke="#D4CBC5" stroke-width="0.5" stroke-miterlimit="3.8637"/>
<path d="M754.184 722.706V752.225" stroke="#D4CBC5" stroke-width="0.5" stroke-miterlimit="3.8637"/>
<path d="M757.938 722.438V751.956" stroke="#D4CBC5" stroke-width="0.5" stroke-miterlimit="3.8637"/>
<path d="M761.691 722.169V751.688" stroke="#D4CBC5" stroke-width="0.5" stroke-miterlimit="3.8637"/>
<path d="M765.445 721.9V751.419" stroke="#D4CBC5" stroke-width="0.5" stroke-miterlimit="3.8637"/>
<path fill-rule="evenodd" clip-rule="evenodd" d="M769.734 721.9H775.366L775.634 751.688L769.734 752.224V721.9Z" fill="url(#paint23_linear_109_1567)"/>
<path fill-rule="evenodd" clip-rule="evenodd" d="M775.637 721.9H778.854V751.419L775.637 751.688V721.9Z" fill="#F4F2F0"/>
<path fill-rule="evenodd" clip-rule="evenodd" d="M809.724 720.291H815.355L815.321 749.273L809.422 749.542L809.724 720.291Z" fill="url(#paint24_linear_109_1567)"/>
<path fill-rule="evenodd" clip-rule="evenodd" d="M778.852 721.901L809.689 720.56L809.421 749.542L778.852 751.42V721.901Z" fill="url(#paint25_linear_109_1567)"/>
<path fill-rule="evenodd" clip-rule="evenodd" d="M801.913 736.392C801.913 734.399 801.263 732.488 800.107 731.079C798.95 729.67 797.381 728.878 795.746 728.878C794.11 728.878 792.541 729.67 791.385 731.079C790.228 732.488 789.578 734.399 789.578 736.392C789.578 738.385 790.228 740.296 791.385 741.705C792.541 743.114 794.11 743.906 795.746 743.906C797.381 743.906 798.95 743.114 800.107 741.705C801.263 740.296 801.913 738.385 801.913 736.392Z" fill="url(#paint26_linear_109_1567)"/>
<path d="M779.121 722.169V751.688" stroke="#D4CBC5" stroke-width="0.5" stroke-miterlimit="3.8637"/>
<path d="M782.605 722.438V751.956" stroke="#D4CBC5" stroke-width="0.5" stroke-miterlimit="3.8637"/>
<path d="M786.398 721.9V751.419" stroke="#D4CBC5" stroke-width="0.5" stroke-miterlimit="3.8637"/>
<path d="M790.191 721.633V751.152" stroke="#D4CBC5" stroke-width="0.5" stroke-miterlimit="3.8637"/>
<path d="M793.984 721.633V751.152" stroke="#D4CBC5" stroke-width="0.5" stroke-miterlimit="3.8637"/>
<path d="M798.043 721.096V750.615" stroke="#D4CBC5" stroke-width="0.5" stroke-miterlimit="3.8637"/>
<path d="M801.84 721.096V750.615" stroke="#D4CBC5" stroke-width="0.5" stroke-miterlimit="3.8637"/>
<path d="M805.633 721.096V750.615" stroke="#D4CBC5" stroke-width="0.5" stroke-miterlimit="3.8637"/>
<path d="M809.156 719.754V749.273" stroke="#D4CBC5" stroke-width="0.5" stroke-miterlimit="3.8637"/>
<path d="M688.755 725.121L688.219 754.64C688.219 754.64 800.306 751.957 815.322 749.273V720.291L688.755 725.121Z" stroke="#A9998F" stroke-width="0.5" stroke-miterlimit="3.8637"/>
<path d="M827.987 831.961C827.925 833.298 828.955 834.221 830.276 834.011L909.67 821.357C910.992 821.145 912.223 819.889 912.41 818.562L914.954 800.306C915.141 798.981 914.209 798.062 912.888 798.268L831.349 810.939C830.027 811.145 828.895 812.407 828.832 813.745L827.987 831.961V831.961Z" fill="white"/>
<path fill-rule="evenodd" clip-rule="evenodd" d="M827.081 832.821C827.019 834.158 828.048 835.079 829.37 834.869L908.764 822.218C910.085 822.005 911.317 820.749 911.501 819.42L914.048 801.164C914.234 799.839 913.301 798.922 911.982 799.129L830.442 811.797C829.121 812.003 827.986 813.265 827.926 814.603L827.081 832.821V832.821Z" fill="#F4F2F0"/>
<path d="M627.52 691.849C627.43 688.391 627.677 687.678 627.614 684.331C627.614 684.331 666.331 699.565 760.617 693.992L1050.43 676.86" stroke="#A9998F" stroke-width="0.5" stroke-miterlimit="3.8637"/>
<path d="M1049.15 682.722L749.358 700.97C651.083 706.949 627.488 691.85 627.488 691.85" stroke="white" stroke-width="0.5" stroke-miterlimit="3.8637"/>
<path d="M641.593 871.642C636.4 833.347 632.905 802.45 630.758 771.114C650.691 782.742 734.191 773.965 833.467 766.494C875.237 763.349 919.119 758.452 967.526 751.155C992.095 747.452 1017.49 743.133 1045.06 738.111" stroke="#A9998F" stroke-width="0.5" stroke-miterlimit="3.8637" stroke-linecap="round"/>
<path d="M640.705 871.642C635.512 833.347 631.985 802.449 629.84 771.114" stroke="white" stroke-width="0.5" stroke-miterlimit="3.8637" stroke-linecap="round"/>
<path d="M631.715 772.497C651.648 784.129 735.114 775.348 834.39 767.877C876.162 764.736 920.044 759.835 968.451 752.538C993.02 748.835 1018.41 744.517 1045.99 739.498" stroke="white" stroke-width="0.5" stroke-miterlimit="3.8637" stroke-linecap="round"/>
<path d="M660.332 834.609C665.695 798.113 691.764 808.268 750.431 800.533C750.431 800.533 915.651 789.077 1041.68 762.128" stroke="#EAE5E2" stroke-width="0.5" stroke-miterlimit="3.8637" stroke-linecap="round"/>
<path d="M376.43 526.303L376.363 477.422L455.998 463.59" stroke="white" stroke-width="0.5" stroke-miterlimit="3.8637"/>
<path d="M456.032 463.59L455.998 520.676L376.363 526.303" stroke="#D4CBC5" stroke-width="0.5" stroke-miterlimit="3.8637"/>
<path fill-rule="evenodd" clip-rule="evenodd" d="M1024.62 702.144L1026.97 701.884V725.147L1024.62 725.54V702.144Z" fill="url(#paint27_linear_109_1567)"/>
<path fill-rule="evenodd" clip-rule="evenodd" d="M1001.59 704.66L1003.47 704.559V728.929L1001.59 729.44V704.66Z" fill="#F4F2F0"/>
<path fill-rule="evenodd" clip-rule="evenodd" d="M998.91 704.817L1001.6 704.66V729.441L998.91 730.051V704.817Z" fill="url(#paint28_linear_109_1567)"/>
<path fill-rule="evenodd" clip-rule="evenodd" d="M1042.03 700.08L1044.92 700.024L1045.31 721.901L1042.03 722.474V700.08Z" fill="url(#paint29_linear_109_1567)"/>
<path fill-rule="evenodd" clip-rule="evenodd" d="M980.183 706.684L998.902 704.816V729.906L979.402 733.202L980.183 706.684Z" fill="url(#paint30_linear_109_1567)"/>
<path fill-rule="evenodd" clip-rule="evenodd" d="M997.343 716.837C997.343 714.871 996.622 712.985 995.338 711.595C994.054 710.205 992.312 709.424 990.496 709.424C988.68 709.424 986.938 710.205 985.654 711.595C984.37 712.985 983.648 714.871 983.648 716.837C983.648 718.803 984.37 720.688 985.654 722.079C986.938 723.469 988.68 724.25 990.496 724.25C992.312 724.25 994.054 723.469 995.338 722.079C996.622 720.688 997.343 718.803 997.343 716.837Z" fill="url(#paint31_linear_109_1567)"/>
<path fill-rule="evenodd" clip-rule="evenodd" d="M1003.57 704.151L1024.56 702.144V725.54L1003.47 728.93L1003.57 704.151Z" fill="url(#paint32_linear_109_1567)"/>
<path fill-rule="evenodd" clip-rule="evenodd" d="M1027.04 701.883L1042.03 700.08V722.474L1026.97 725.146L1027.04 701.883Z" fill="url(#paint33_linear_109_1567)"/>
<path fill-rule="evenodd" clip-rule="evenodd" d="M1017.59 715.074C1017.59 714.177 1017.43 713.29 1017.14 712.461C1016.85 711.633 1016.42 710.881 1015.87 710.247C1015.33 709.613 1014.69 709.11 1013.98 708.767C1013.27 708.424 1012.51 708.247 1011.74 708.247C1010.97 708.247 1010.21 708.424 1009.51 708.767C1008.8 709.11 1008.15 709.613 1007.61 710.247C1007.07 710.881 1006.64 711.633 1006.34 712.461C1006.05 713.29 1005.9 714.177 1005.9 715.074C1005.9 715.971 1006.05 716.858 1006.34 717.687C1006.64 718.515 1007.07 719.267 1007.61 719.901C1008.15 720.535 1008.8 721.038 1009.51 721.381C1010.21 721.724 1010.97 721.901 1011.74 721.901C1012.51 721.901 1013.27 721.724 1013.98 721.381C1014.69 721.038 1015.33 720.535 1015.87 719.901C1016.42 719.267 1016.85 718.515 1017.14 717.687C1017.43 716.858 1017.59 715.971 1017.59 715.074" fill="url(#paint34_linear_109_1567)"/>
<path fill-rule="evenodd" clip-rule="evenodd" d="M1039.09 712.152C1039.09 710.286 1038.61 708.497 1037.74 707.178C1036.87 705.858 1035.7 705.117 1034.47 705.117C1033.25 705.117 1032.07 705.858 1031.21 707.178C1030.34 708.497 1029.86 710.286 1029.86 712.152C1029.86 714.018 1030.34 715.808 1031.21 717.127C1032.07 718.446 1033.25 719.187 1034.47 719.187C1035.7 719.187 1036.87 718.446 1037.74 717.127C1038.61 715.808 1039.09 714.018 1039.09 712.152" fill="url(#paint35_linear_109_1567)"/>
<path fill-rule="evenodd" clip-rule="evenodd" d="M1027.01 702.32L1028.43 702.013V724.55L1026.97 725.147L1027.01 702.32Z" fill="#F4F2F0"/>
<path d="M982.047 706.502L982.133 733.105" stroke="#D4CBC5" stroke-width="0.5" stroke-miterlimit="3.8637"/>
<path d="M985.117 706.111L985.205 732.715" stroke="#D4CBC5" stroke-width="0.5" stroke-miterlimit="3.8637"/>
<path d="M988.188 705.723L988.273 731.884" stroke="#D4CBC5" stroke-width="0.5" stroke-miterlimit="3.8637"/>
<path d="M991.258 705.332L991.344 731.373" stroke="#D4CBC5" stroke-width="0.5" stroke-miterlimit="3.8637"/>
<path d="M994.328 704.943L994.416 730.866" stroke="#D4CBC5" stroke-width="0.5" stroke-miterlimit="3.8637"/>
<path d="M997.398 704.555L997.484 730.353" stroke="#D4CBC5" stroke-width="0.5" stroke-miterlimit="3.8637"/>
<path d="M1004.77 704.299L1004.86 729.133" stroke="#D4CBC5" stroke-width="0.5" stroke-miterlimit="3.8637"/>
<path d="M1007.84 703.908L1007.93 728.421" stroke="#D4CBC5" stroke-width="0.5" stroke-miterlimit="3.8637"/>
<path d="M1010.91 703.518L1011 727.809" stroke="#D4CBC5" stroke-width="0.5" stroke-miterlimit="3.8637"/>
<path d="M1013.98 703.129L1014.07 727.201" stroke="#D4CBC5" stroke-width="0.5" stroke-miterlimit="3.8637"/>
<path d="M1017.05 702.738L1017.14 726.688" stroke="#D4CBC5" stroke-width="0.5" stroke-miterlimit="3.8637"/>
<path d="M1020.12 702.35L1020.21 726.181" stroke="#D4CBC5" stroke-width="0.5" stroke-miterlimit="3.8637"/>
<path d="M1023.19 701.961L1023.28 725.673" stroke="#D4CBC5" stroke-width="0.5" stroke-miterlimit="3.8637"/>
<path d="M1031.14 701.774L1031.23 724.35" stroke="#D4CBC5" stroke-width="0.5" stroke-miterlimit="3.8637"/>
<path d="M1034.21 701.384L1034.3 723.943" stroke="#D4CBC5" stroke-width="0.5" stroke-miterlimit="3.8637"/>
<path d="M1037.28 700.995L1037.37 723.432" stroke="#D4CBC5" stroke-width="0.5" stroke-miterlimit="3.8637"/>
<path d="M1040.35 700.604L1040.44 722.822" stroke="#D4CBC5" stroke-width="0.5" stroke-miterlimit="3.8637"/>
<path d="M1044.92 700.024L980.183 706.684L979.402 733.201L1045.31 721.901L1044.92 700.024Z" stroke="#A9998F" stroke-width="0.5" stroke-miterlimit="3.8637"/>
</g>
<defs>
<linearGradient id="paint0_linear_109_1567" x1="124.002" y1="587.237" x2="124.002" y2="674.783" gradientUnits="userSpaceOnUse">
<stop stop-color="#A9998F"/>
<stop offset="1" stop-color="#D4CBC5"/>
</linearGradient>
<linearGradient id="paint1_linear_109_1567" x1="124" y1="613.343" x2="124" y2="759.491" gradientUnits="userSpaceOnUse">
<stop stop-color="#A9998F"/>
<stop offset="1" stop-color="#D4CBC5"/>
</linearGradient>
<linearGradient id="paint2_linear_109_1567" x1="124.001" y1="684.343" x2="124.001" y2="709.512" gradientUnits="userSpaceOnUse">
<stop stop-color="#69574E"/>
<stop offset="1" stop-color="white"/>
</linearGradient>
<linearGradient id="paint3_linear_109_1567" x1="124.001" y1="707.365" x2="124.001" y2="785.085" gradientUnits="userSpaceOnUse">
<stop stop-color="white"/>
<stop offset="1" stop-color="#69574E"/>
</linearGradient>
<linearGradient id="paint4_linear_109_1567" x1="424.818" y1="697.419" x2="417.646" y2="720.859" gradientUnits="userSpaceOnUse">
<stop stop-color="#69574E"/>
<stop offset="1" stop-color="white"/>
</linearGradient>
<linearGradient id="paint5_linear_109_1567" x1="418.287" y1="718.807" x2="411.665" y2="740.449" gradientUnits="userSpaceOnUse">
<stop stop-color="white"/>
<stop offset="1" stop-color="#A9998F"/>
</linearGradient>
<linearGradient id="paint6_linear_109_1567" x1="412.302" y1="738.4" x2="401.95" y2="772.233" gradientUnits="userSpaceOnUse">
<stop stop-color="#A9998F"/>
<stop offset="1" stop-color="#69574E"/>
</linearGradient>
<linearGradient id="paint7_linear_109_1567" x1="124" y1="631.346" x2="124" y2="645.799" gradientUnits="userSpaceOnUse">
<stop stop-color="#69574E"/>
<stop offset="1" stop-color="white"/>
</linearGradient>
<linearGradient id="paint8_linear_109_1567" x1="124" y1="644.566" x2="124" y2="689.195" gradientUnits="userSpaceOnUse">
<stop stop-color="white"/>
<stop offset="1" stop-color="#69574E"/>
</linearGradient>
<linearGradient id="paint9_linear_109_1567" x1="202.188" y1="638.855" x2="198.07" y2="652.314" gradientUnits="userSpaceOnUse">
<stop stop-color="#69574E"/>
<stop offset="1" stop-color="white"/>
</linearGradient>
<linearGradient id="paint10_linear_109_1567" x1="198.433" y1="651.134" x2="194.631" y2="663.563" gradientUnits="userSpaceOnUse">
<stop stop-color="white"/>
<stop offset="1" stop-color="#A9998F"/>
</linearGradient>
<linearGradient id="paint11_linear_109_1567" x1="194.999" y1="662.386" x2="189.056" y2="681.813" gradientUnits="userSpaceOnUse">
<stop stop-color="#A9998F"/>
<stop offset="1" stop-color="#69574E"/>
</linearGradient>
<linearGradient id="paint12_linear_109_1567" x1="434.443" y1="470.788" x2="527.27" y2="185.31" gradientUnits="userSpaceOnUse">
<stop stop-color="#69574E"/>
<stop offset="1" stop-color="#F4F2F0"/>
</linearGradient>
<linearGradient id="paint13_linear_109_1567" x1="750.743" y1="620.407" x2="877.57" y2="230.368" gradientUnits="userSpaceOnUse">
<stop stop-color="#69574E"/>
<stop offset="1" stop-color="#F4F2F0"/>
</linearGradient>
<linearGradient id="paint14_linear_109_1567" x1="147.5" y1="491.47" x2="419.724" y2="301" gradientUnits="userSpaceOnUse">
<stop stop-color="#A9998F"/>
<stop offset="1" stop-color="#F4F2F0"/>
</linearGradient>
<linearGradient id="paint15_linear_109_1567" x1="123.999" y1="723.779" x2="123.999" y2="753.566" gradientUnits="userSpaceOnUse">
<stop stop-color="#A9998F"/>
<stop offset="1" stop-color="#D4CBC5"/>
</linearGradient>
<linearGradient id="paint16_linear_109_1567" x1="124" y1="723.779" x2="124" y2="754.64" gradientUnits="userSpaceOnUse">
<stop stop-color="#69574E"/>
<stop offset="1" stop-color="white"/>
</linearGradient>
<linearGradient id="paint17_linear_109_1567" x1="123.999" y1="721.9" x2="123.999" y2="753.298" gradientUnits="userSpaceOnUse">
<stop stop-color="#69574E"/>
<stop offset="1" stop-color="white"/>
</linearGradient>
<linearGradient id="paint18_linear_109_1567" x1="713.37" y1="732.578" x2="699.534" y2="745.026" gradientUnits="userSpaceOnUse">
<stop stop-color="#948177"/>
<stop offset="1" stop-color="#EAE5E2"/>
</linearGradient>
<linearGradient id="paint19_linear_109_1567" x1="756.277" y1="734.532" x2="746.162" y2="743.633" gradientUnits="userSpaceOnUse">
<stop stop-color="#948177"/>
<stop offset="1" stop-color="#EAE5E2"/>
</linearGradient>
<linearGradient id="paint20_linear_109_1567" x1="124.001" y1="753.834" x2="124.001" y2="725.654" gradientUnits="userSpaceOnUse">
<stop stop-color="#FFF381"/>
<stop offset="1" stop-color="#F29400"/>
</linearGradient>
<linearGradient id="paint21_linear_109_1567" x1="529.669" y1="559.092" x2="630.667" y2="248.487" gradientUnits="userSpaceOnUse">
<stop stop-color="#69574E"/>
<stop offset="1" stop-color="#F4F2F0"/>
</linearGradient>
<linearGradient id="paint22_linear_109_1567" x1="124.001" y1="721.9" x2="124.001" y2="701.276" gradientUnits="userSpaceOnUse">
<stop stop-color="#FFF381"/>
<stop offset="1" stop-color="#F29400"/>
</linearGradient>
<linearGradient id="paint23_linear_109_1567" x1="123.994" y1="721.9" x2="123.994" y2="752.224" gradientUnits="userSpaceOnUse">
<stop stop-color="#A9998F"/>
<stop offset="1" stop-color="#D4CBC5"/>
</linearGradient>
<linearGradient id="paint24_linear_109_1567" x1="124.019" y1="720.291" x2="124.019" y2="749.541" gradientUnits="userSpaceOnUse">
<stop stop-color="#A9998F"/>
<stop offset="1" stop-color="#D4CBC5"/>
</linearGradient>
<linearGradient id="paint25_linear_109_1567" x1="123.999" y1="720.559" x2="123.999" y2="751.42" gradientUnits="userSpaceOnUse">
<stop stop-color="#69574E"/>
<stop offset="1" stop-color="white"/>
</linearGradient>
<linearGradient id="paint26_linear_109_1567" x1="800.786" y1="731.849" x2="790.672" y2="740.949" gradientUnits="userSpaceOnUse">
<stop stop-color="#948177"/>
<stop offset="1" stop-color="#EAE5E2"/>
</linearGradient>
<linearGradient id="paint27_linear_109_1567" x1="124.006" y1="701.883" x2="124.006" y2="725.54" gradientUnits="userSpaceOnUse">
<stop stop-color="#A9998F"/>
<stop offset="1" stop-color="#D4CBC5"/>
</linearGradient>
<linearGradient id="paint28_linear_109_1567" x1="123.986" y1="704.66" x2="123.986" y2="730.05" gradientUnits="userSpaceOnUse">
<stop stop-color="#A9998F"/>
<stop offset="1" stop-color="#D4CBC5"/>
</linearGradient>
<linearGradient id="paint29_linear_109_1567" x1="124.02" y1="700.025" x2="124.02" y2="722.475" gradientUnits="userSpaceOnUse">
<stop stop-color="#A9998F"/>
<stop offset="1" stop-color="#D4CBC5"/>
</linearGradient>
<linearGradient id="paint30_linear_109_1567" x1="124.002" y1="704.816" x2="124.002" y2="733.201" gradientUnits="userSpaceOnUse">
<stop stop-color="#69574E"/>
<stop offset="1" stop-color="white"/>
</linearGradient>
<linearGradient id="paint31_linear_109_1567" x1="995.761" y1="712.094" x2="985.197" y2="721.598" gradientUnits="userSpaceOnUse">
<stop stop-color="#948177"/>
<stop offset="1" stop-color="#EAE5E2"/>
</linearGradient>
<linearGradient id="paint32_linear_109_1567" x1="124.001" y1="702.143" x2="124.001" y2="728.93" gradientUnits="userSpaceOnUse">
<stop stop-color="#69574E"/>
<stop offset="1" stop-color="white"/>
</linearGradient>
<linearGradient id="paint33_linear_109_1567" x1="123.995" y1="700.08" x2="123.995" y2="725.146" gradientUnits="userSpaceOnUse">
<stop stop-color="#69574E"/>
<stop offset="1" stop-color="white"/>
</linearGradient>
<linearGradient id="paint34_linear_109_1567" x1="1016.41" y1="710.869" x2="1007.04" y2="719.299" gradientUnits="userSpaceOnUse">
<stop stop-color="#948177"/>
<stop offset="1" stop-color="#EAE5E2"/>
</linearGradient>
<linearGradient id="paint35_linear_109_1567" x1="1038.79" y1="708.267" x2="1030.13" y2="716.061" gradientUnits="userSpaceOnUse">
<stop stop-color="#948177"/>
<stop offset="1" stop-color="#EAE5E2"/>
</linearGradient>
<clipPath id="clip0_109_1567">
<rect width="810" height="445" fill="white" transform="translate(513)"/>
</clipPath>
<clipPath id="clip1_109_1567">
<rect width="336" height="185" fill="white" transform="matrix(-1 0 0 1 336 144)"/>
</clipPath>
<clipPath id="clip2_109_1567">
<rect width="982" height="850" fill="white" transform="translate(124 163)"/>
</clipPath>
</defs>
</svg>
